<?xml version="1.0" encoding="utf-8"?>
<!-- Generator: Adobe Illustrator 16.0.0, SVG Export Plug-In . SVG Version: 6.00 Build 0)  -->
<!DOCTYPE svg PUBLIC "-//W3C//DTD SVG 1.1//EN" "http://www.w3.org/Graphics/SVG/1.1/DTD/svg11.dtd">
<svg version="1.1" id="Layer_1" xmlns="http://www.w3.org/2000/svg" xmlns:xlink="http://www.w3.org/1999/xlink" x="0px" y="0px"
	 width="308.107px" height="314.201px" viewBox="0 0 308.107 314.201" enable-background="new 0 0 308.107 314.201"
	 xml:space="preserve">
<rect x="-6.5" y="-0.438" width="314.607" height="314.639"/>
<g>
	<g>
		<path fill="#E9C247" d="M70.519,156.356l-29.005,1.373l0.173,3.656l-5.119,0.242l-0.607-12.821l5.119-0.242l0.173,3.656
			l29.004-1.371L70.519,156.356z"/>
		<path fill="#E9C247" d="M35.987,162.265l-0.664-14.039l6.336-0.3l0.173,3.656l29.004-1.371l0.317,6.726l-29.003,1.372l0.173,3.656
			L35.987,162.265z M36.6,149.386l0.548,11.603l3.901-0.184l-0.173-3.656l29.003-1.372l-0.202-4.291l-29.004,1.372l-0.173-3.656
			L36.6,149.386z"/>
	</g>
	<g>
		<path fill="#E9C247" d="M52.17,127.675l1.038-4.917l5.062,1.066l-1.038,4.92l9.836,2.074l1.279-6.065l5.062,1.068l-2.417,11.46
			l-33.425-7.05l2.416-11.46l5.062,1.068l-1.278,6.063L52.17,127.675z"/>
		<path fill="#E9C247" d="M71.463,138.004l-34.619-7.301l2.667-12.656l6.255,1.32l-1.279,6.065l7.211,1.52l1.038-4.918l6.254,1.319
			l-1.036,4.918l8.643,1.822l1.278-6.063l6.256,1.319L71.463,138.004z M38.288,129.761l32.232,6.797l2.166-10.267l-3.868-0.815
			l-1.279,6.063l-11.03-2.326l1.036-4.918l-3.868-0.814l-1.036,4.917l-9.599-2.024l1.279-6.065l-3.868-0.815L38.288,129.761z"/>
	</g>
	<g>
		<path fill="#E9C247" d="M64.814,103.149c-1.126-0.311-2.178-0.639-3.157-0.983c-0.98-0.343-1.995-0.706-3.045-1.09
			c1.004,0.468,1.969,0.925,2.894,1.368c0.924,0.444,1.888,0.938,2.889,1.478l14.644,7.908l-2.272,4.208l-30.06-16.232l3.316-6.141
			l14.555,4.477c1.111,0.341,2.176,0.694,3.199,1.062c1.021,0.367,2.057,0.741,3.108,1.124c-0.989-0.498-1.974-0.984-2.957-1.459
			c-0.981-0.475-1.973-0.982-2.976-1.523l-13.097-7.072l2.25-4.165l30.058,16.23l-2.991,5.54L64.814,103.149z"/>
		<path fill="#E9C247" d="M77.014,116.865l-31.132-16.812l3.844-7.118l13.423,4.128L51.03,90.52l2.828-5.239l31.133,16.812
			l-3.515,6.508l-15.349-4.437l13.739,7.419L77.014,116.865z M47.535,99.56l28.985,15.651l1.693-3.133l-14.107-7.62
			c-0.993-0.535-1.947-1.023-2.864-1.463c-0.923-0.443-1.886-0.899-2.888-1.366l0.467-1.125c1.047,0.381,2.059,0.744,3.037,1.085
			c0.966,0.341,2.015,0.668,3.118,0.972l15.894,4.595l2.469-4.569L54.353,86.935l-1.669,3.091l12.56,6.783
			c0.994,0.537,1.977,1.041,2.952,1.511c0.985,0.477,1.974,0.964,2.964,1.462l-0.482,1.119c-1.05-0.382-2.086-0.755-3.105-1.123
			c-1.014-0.364-2.071-0.714-3.171-1.053l-14.078-4.329L47.535,99.56z"/>
	</g>
	<g>
		<path fill="#E9C247" d="M90.63,80.878c-0.501-0.51-0.981-0.904-1.438-1.185c-0.459-0.28-0.969-0.485-1.531-0.617
			c-0.563-0.132-1.218-0.183-1.966-0.155c-0.748,0.029-1.662,0.073-2.745,0.133c-1.243,0.081-2.323,0.106-3.244,0.074
			c-0.918-0.03-1.764-0.157-2.532-0.382c-0.769-0.227-1.521-0.583-2.252-1.073c-0.731-0.489-1.509-1.152-2.329-1.986l-1.3-1.323
			c-0.936-0.951-1.652-1.809-2.151-2.573c-0.5-0.761-0.77-1.501-0.81-2.216c-0.04-0.712,0.151-1.423,0.57-2.133
			c0.42-0.709,1.071-1.498,1.953-2.365l1.671-1.642c0.881-0.866,1.68-1.503,2.397-1.913c0.717-0.407,1.431-0.585,2.145-0.534
			c0.711,0.053,1.446,0.335,2.201,0.848c0.755,0.514,1.6,1.244,2.536,2.196l3.317,3.375l-3.688,3.627l-2.805-2.854
			c-0.661-0.672-1.187-1.068-1.578-1.186c-0.391-0.12-0.863,0.094-1.42,0.643l-0.417,0.41c-0.582,0.57-0.814,1.041-0.704,1.409
			c0.112,0.37,0.488,0.879,1.125,1.528l0.822,0.835c0.503,0.511,0.982,0.907,1.439,1.187c0.457,0.28,0.962,0.479,1.513,0.599
			c0.55,0.12,1.201,0.177,1.948,0.171c0.748-0.004,1.674-0.048,2.778-0.131c1.221-0.058,2.297-0.076,3.228-0.058
			c0.931,0.019,1.793,0.141,2.585,0.367c0.792,0.226,1.548,0.576,2.269,1.054c0.72,0.479,1.491,1.134,2.313,1.97l1.846,1.878
			c0.937,0.953,1.649,1.815,2.136,2.589c0.487,0.776,0.758,1.514,0.809,2.216c0.051,0.703-0.139,1.415-0.57,2.134
			c-0.432,0.722-1.078,1.504-1.935,2.349l-1.671,1.641c-0.881,0.868-1.681,1.505-2.397,1.913c-0.717,0.408-1.431,0.586-2.145,0.534
			s-1.447-0.334-2.2-0.847c-0.756-0.513-1.6-1.245-2.537-2.196l-4.002-4.072l3.654-3.593l3.491,3.55
			c0.661,0.672,1.18,1.074,1.559,1.203c0.378,0.131,0.858-0.09,1.438-0.66l0.453-0.445c0.557-0.548,0.773-1.011,0.65-1.393
			c-0.123-0.379-0.515-0.905-1.177-1.579L90.63,80.878z"/>
		<path fill="#E9C247" d="M90.843,92.851c-0.094,0-0.19-0.003-0.284-0.01c-0.82-0.061-1.661-0.381-2.501-0.951
			c-0.783-0.533-1.667-1.297-2.627-2.273L81,85.11l4.525-4.447l3.917,3.985c0.774,0.788,1.161,0.999,1.32,1.052
			c0.083,0.006,0.311-0.021,0.814-0.517l0.452-0.445c0.448-0.442,0.522-0.697,0.498-0.769c-0.053-0.162-0.257-0.553-1.032-1.34
			l-1.3-1.324c-0.463-0.469-0.908-0.838-1.323-1.093c-0.399-0.243-0.854-0.426-1.351-0.543c-0.506-0.119-1.116-0.161-1.804-0.14
			c-0.744,0.029-1.656,0.072-2.733,0.133c-1.259,0.082-2.361,0.111-3.299,0.074c-0.966-0.031-1.87-0.167-2.684-0.407
			c-0.827-0.242-1.641-0.629-2.42-1.152c-0.761-0.507-1.577-1.203-2.424-2.065l-1.3-1.322c-0.96-0.977-1.71-1.873-2.227-2.667
			c-0.557-0.848-0.862-1.694-0.909-2.515c-0.046-0.831,0.174-1.665,0.655-2.479c0.447-0.753,1.136-1.591,2.05-2.488L72.097,63
			c0.915-0.899,1.763-1.575,2.522-2.007c0.821-0.467,1.659-0.67,2.49-0.614c0.82,0.062,1.66,0.382,2.501,0.951
			c0.79,0.538,1.673,1.302,2.627,2.273l3.746,3.811l-4.559,4.481l-3.232-3.288c-0.77-0.782-1.156-0.982-1.319-1.031
			c-0.094,0.008-0.343,0.029-0.815,0.494l-0.418,0.411c-0.571,0.562-0.547,0.795-0.547,0.795c0.038,0.125,0.206,0.495,0.976,1.279
			l0.822,0.836c0.466,0.474,0.911,0.841,1.323,1.093c0.396,0.243,0.842,0.418,1.324,0.522c0.481,0.105,1.056,0.159,1.711,0.159
			c0.853-0.005,1.774-0.05,2.84-0.13c1.26-0.06,2.343-0.072,3.287-0.06c0.978,0.02,1.899,0.152,2.74,0.39
			c0.849,0.242,1.669,0.623,2.438,1.132c0.758,0.504,1.569,1.193,2.411,2.052l1.846,1.878c0.965,0.982,1.709,1.886,2.217,2.692
			c0.539,0.856,0.842,1.696,0.902,2.495c0.059,0.83-0.161,1.668-0.656,2.493c-0.455,0.759-1.138,1.59-2.03,2.47l-1.671,1.641
			c-0.915,0.899-1.763,1.575-2.523,2.008C92.323,92.643,91.582,92.851,90.843,92.851z M82.726,85.125l3.575,3.637
			c0.904,0.919,1.727,1.631,2.443,2.117c0.661,0.451,1.3,0.7,1.904,0.746c0.582,0.035,1.192-0.111,1.797-0.457
			c0.668-0.381,1.433-0.992,2.272-1.816l1.67-1.642c0.818-0.806,1.437-1.556,1.838-2.227c0.37-0.616,0.528-1.196,0.486-1.777
			c-0.044-0.596-0.287-1.248-0.717-1.935c-0.46-0.73-1.152-1.568-2.055-2.485l-1.846-1.879c-0.783-0.797-1.529-1.434-2.216-1.89
			c-0.664-0.438-1.369-0.767-2.098-0.976c-0.739-0.209-1.557-0.325-2.43-0.343c-0.917-0.019-1.982,0-3.187,0.057
			c-1.077,0.082-2.026,0.127-2.803,0.133c-0.004,0-0.006,0-0.01,0c-0.85,0-1.509-0.063-2.074-0.187
			c-0.615-0.133-1.188-0.361-1.701-0.675c-0.496-0.304-1.02-0.733-1.555-1.278L75.2,71.411c-0.727-0.739-1.131-1.305-1.275-1.778
			c-0.275-0.906,0.579-1.745,0.859-2.02l0.417-0.412c0.733-0.72,1.415-0.979,2.026-0.792c0.499,0.152,1.083,0.578,1.835,1.344
			l2.376,2.419l2.818-2.771l-2.889-2.941c-0.899-0.915-1.72-1.627-2.443-2.12c-0.661-0.448-1.301-0.698-1.904-0.743
			c-0.57-0.031-1.188,0.11-1.797,0.456c-0.667,0.38-1.432,0.991-2.271,1.817l-1.67,1.641c-0.84,0.825-1.463,1.58-1.857,2.241
			c-0.359,0.61-0.518,1.196-0.485,1.79c0.035,0.604,0.273,1.249,0.711,1.915c0.474,0.727,1.172,1.56,2.076,2.48l1.3,1.323
			c0.789,0.801,1.541,1.443,2.233,1.906c0.677,0.452,1.378,0.787,2.083,0.994c0.717,0.21,1.518,0.331,2.381,0.358
			c0.906,0.033,1.965,0.006,3.185-0.073c1.092-0.061,2.01-0.104,2.762-0.133c0.811-0.037,1.517,0.027,2.128,0.171
			c0.623,0.146,1.198,0.377,1.71,0.689c0.5,0.306,1.023,0.737,1.556,1.279l1.3,1.324c0.746,0.757,1.165,1.335,1.322,1.818
			c0.2,0.618-0.071,1.295-0.803,2.015l-0.452,0.445c-0.598,0.586-1.135,0.872-1.646,0.872l0,0c-0.144,0-0.285-0.024-0.419-0.07
			c-0.478-0.163-1.049-0.593-1.795-1.353l-3.063-3.116L82.726,85.125z"/>
	</g>
	<g>
		<path fill="#E9C247" d="M96.676,53.152c-0.617-1.183-1.053-2.211-1.308-3.086c-0.256-0.877-0.3-1.662-0.129-2.357
			c0.169-0.692,0.566-1.321,1.189-1.886c0.623-0.563,1.481-1.132,2.579-1.704l2.508-1.31c1.096-0.572,2.046-0.949,2.852-1.13
			c0.805-0.182,1.54-0.145,2.206,0.114c0.667,0.258,1.295,0.738,1.882,1.44c0.587,0.703,1.189,1.646,1.806,2.829l9.621,18.428
			c0.618,1.183,1.046,2.216,1.288,3.099c0.241,0.884,0.275,1.673,0.106,2.367c-0.169,0.694-0.559,1.32-1.167,1.875
			c-0.61,0.557-1.462,1.122-2.558,1.693l-2.509,1.31c-1.096,0.573-2.055,0.952-2.873,1.142c-0.819,0.188-1.562,0.155-2.228-0.104
			c-0.667-0.256-1.286-0.74-1.859-1.451c-0.573-0.71-1.167-1.657-1.786-2.839L96.676,53.152z M105.711,49.262
			c-0.438-0.836-0.819-1.371-1.143-1.606c-0.324-0.233-0.847-0.163-1.566,0.213l-0.692,0.362c-0.721,0.376-1.079,0.765-1.072,1.164
			c0.008,0.401,0.23,1.02,0.666,1.855l8.944,17.131c0.436,0.838,0.817,1.373,1.142,1.607c0.324,0.234,0.847,0.163,1.568-0.213
			l0.691-0.361c0.721-0.376,1.079-0.764,1.072-1.165c-0.008-0.399-0.229-1.018-0.666-1.854L105.711,49.262z"/>
		<path fill="#E9C247" d="M111.17,76.706c-0.509,0-0.997-0.089-1.449-0.264c-0.763-0.295-1.476-0.845-2.114-1.638
			c-0.595-0.737-1.217-1.728-1.851-2.94l-9.621-18.43c-0.635-1.214-1.089-2.29-1.354-3.199c-0.286-0.976-0.331-1.876-0.135-2.672
			c0.197-0.809,0.659-1.548,1.373-2.192c0.657-0.596,1.567-1.198,2.705-1.792l2.508-1.312c1.136-0.592,2.144-0.991,3-1.184
			c0.92-0.207,1.784-0.161,2.561,0.14c0.761,0.296,1.477,0.84,2.128,1.618c0.612,0.735,1.245,1.722,1.879,2.938l9.62,18.429
			c0.634,1.213,1.084,2.297,1.336,3.221c0.267,0.979,0.304,1.876,0.111,2.67c-0.199,0.811-0.652,1.546-1.349,2.183
			c-0.649,0.591-1.554,1.192-2.687,1.783l-2.509,1.31c-1.134,0.592-2.149,0.993-3.018,1.194
			C111.917,76.659,111.534,76.706,111.17,76.706z M105.33,42.177c-0.262,0-0.542,0.032-0.829,0.098
			c-0.751,0.168-1.661,0.531-2.702,1.075l-2.51,1.311c-1.045,0.546-1.871,1.089-2.452,1.615c-0.535,0.485-0.864,1.001-1.005,1.578
			c-0.145,0.587-0.103,1.272,0.122,2.042c0.242,0.831,0.667,1.832,1.262,2.975l9.622,18.431c0.596,1.141,1.174,2.064,1.719,2.739
			c0.503,0.623,1.042,1.048,1.604,1.264c0.551,0.212,1.176,0.237,1.873,0.078c0.765-0.178,1.684-0.544,2.726-1.087l2.51-1.312
			c1.04-0.542,1.856-1.081,2.428-1.602c0.521-0.475,0.844-0.989,0.986-1.569c0.144-0.591,0.109-1.285-0.102-2.062
			c-0.23-0.838-0.648-1.842-1.241-2.978l-9.621-18.428c-0.594-1.137-1.177-2.053-1.734-2.72c-0.517-0.618-1.066-1.043-1.633-1.261
			C106.035,42.239,105.69,42.177,105.33,42.177z M112.45,70.732c-0.314,0-0.589-0.084-0.818-0.251
			c-0.412-0.297-0.833-0.875-1.325-1.818l-8.944-17.132c-0.493-0.943-0.726-1.619-0.734-2.127c-0.017-0.978,1.048-1.532,1.399-1.715
			l0.69-0.36c0.961-0.5,1.684-0.544,2.208-0.167c0.414,0.3,0.834,0.877,1.326,1.819l8.944,17.131
			c0.491,0.942,0.725,1.618,0.734,2.125c0.016,0.978-1.05,1.535-1.4,1.716l-0.69,0.362C113.301,70.596,112.846,70.732,112.45,70.732
			z M104.109,48.132c-0.108,0-0.361,0.034-0.825,0.278l-0.69,0.361c-0.612,0.318-0.746,0.555-0.746,0.613
			c0.003,0.17,0.084,0.602,0.597,1.583l8.943,17.131c0.513,0.98,0.82,1.295,0.958,1.394c0.212,0.027,0.464-0.017,0.928-0.259
			l0.691-0.361c0.728-0.379,0.745-0.611,0.745-0.615c-0.002-0.168-0.084-0.603-0.596-1.582l-8.944-17.131
			c-0.511-0.979-0.821-1.295-0.96-1.395L104.109,48.132z"/>
	</g>
	<g>
		<path fill="#E9C247" d="M147.139,58.392c0.194,1.091,0.427,2.13,0.702,3.123c0.275,0.992,0.648,1.875,1.115,2.65l-5.622,1
			c-0.353-0.5-0.646-1.216-0.876-2.149c-0.232-0.934-0.442-1.929-0.63-2.987l-1.091-6.15c-0.182-1.025-0.452-1.754-0.809-2.186
			c-0.357-0.433-0.985-0.569-1.882-0.411l-2.066,0.367l2.55,14.368l-5.43,0.963l-5.97-33.635l8.938-1.586
			c1.217-0.215,2.236-0.29,3.059-0.221c0.821,0.07,1.511,0.326,2.07,0.772c0.557,0.446,1.011,1.093,1.359,1.94
			c0.35,0.847,0.64,1.927,0.873,3.239l0.639,3.605c0.342,1.922,0.398,3.408,0.171,4.455c-0.226,1.048-0.87,1.849-1.928,2.4
			c1.184,0.153,2.063,0.69,2.641,1.613c0.577,0.922,1.036,2.343,1.376,4.265L147.139,58.392z M138.128,39.174
			c-0.166-0.93-0.368-1.553-0.607-1.875s-0.758-0.411-1.559-0.269l-2.499,0.444l1.612,9.082l2.498-0.444
			c0.77-0.136,1.218-0.397,1.349-0.784c0.129-0.386,0.111-1.044-0.053-1.974L138.128,39.174z"/>
		<path fill="#E9C247" d="M132.605,67.687l-6.183-34.835l9.539-1.693c1.271-0.224,2.354-0.298,3.217-0.228
			c0.939,0.079,1.748,0.382,2.398,0.903c0.638,0.51,1.159,1.245,1.543,2.185c0.364,0.882,0.67,2.014,0.91,3.364l0.64,3.605
			c0.357,2.02,0.413,3.554,0.167,4.69c-0.173,0.796-0.549,1.473-1.125,2.025c0.732,0.323,1.321,0.837,1.758,1.536
			c0.626,1.001,1.103,2.467,1.46,4.483l0.81,4.564c0.191,1.072,0.423,2.102,0.69,3.066c0.259,0.933,0.612,1.774,1.049,2.5
			l0.459,0.759l-6.877,1.223l-0.224-0.316c-0.402-0.564-0.719-1.334-0.972-2.354c-0.233-0.938-0.447-1.956-0.637-3.027l-1.092-6.15
			c-0.202-1.14-0.48-1.665-0.679-1.904c-0.051-0.063-0.208-0.252-0.747-0.252c-0.17,0-0.356,0.019-0.558,0.053l-1.466,0.261
			l2.551,14.368L132.605,67.687z M127.837,33.838l5.756,32.435l4.229-0.75l-2.55-14.368l2.667-0.474
			c1.158-0.208,1.955,0.016,2.458,0.622c0.431,0.52,0.737,1.327,0.939,2.468l1.092,6.15c0.186,1.044,0.395,2.035,0.621,2.946
			c0.164,0.667,0.361,1.211,0.585,1.624l4.381-0.778c-0.305-0.626-0.56-1.307-0.762-2.037c-0.278-0.999-0.519-2.068-0.716-3.178
			l-0.811-4.564c-0.325-1.834-0.76-3.197-1.292-4.049c-0.479-0.766-1.201-1.202-2.201-1.33l-1.926-0.25l1.722-0.897
			c0.897-0.467,1.426-1.119,1.615-1.987c0.208-0.965,0.149-2.385-0.177-4.22l-0.639-3.605c-0.224-1.264-0.506-2.312-0.837-3.113
			c-0.306-0.747-0.702-1.316-1.176-1.696c-0.466-0.371-1.035-0.582-1.74-0.64c-0.772-0.063-1.742,0.009-2.902,0.213L127.837,33.838z
			 M134.582,47.263l-1.827-10.282l3.1-0.55c1.098-0.197,1.77-0.015,2.155,0.503c0.304,0.411,0.533,1.088,0.718,2.134l0.743,4.18
			c0.186,1.056,0.196,1.78,0.029,2.274c-0.205,0.611-0.817,1.013-1.82,1.19L134.582,47.263z M134.171,37.968l1.398,7.881
			l1.897-0.337c0.63-0.111,0.848-0.291,0.876-0.378c0.055-0.161,0.116-0.593-0.076-1.673l-0.741-4.18
			c-0.193-1.087-0.393-1.481-0.495-1.619c-0.036-0.048-0.408-0.129-0.963-0.031L134.171,37.968z"/>
	</g>
	<g>
		<path fill="#E9C247" d="M176.563,66.941l8.102-27.883l-3.515-1.021l1.429-4.922l12.325,3.583l-1.429,4.92l-3.515-1.022
			l-8.102,27.884L176.563,66.941z"/>
		<path fill="#E9C247" d="M182.273,69.235l-6.466-1.878l8.101-27.883l-3.514-1.021l1.77-6.094l13.497,3.921l-1.771,6.092
			l-3.515-1.022L182.273,69.235z M177.318,66.525l4.124,1.199l8.102-27.884l3.515,1.022l1.088-3.749l-11.154-3.242l-1.088,3.75
			l3.514,1.021L177.318,66.525z"/>
	</g>
	<g>
		<path fill="#E9C247" d="M211.305,44.027l4.811,2.696l-16.708,29.798l-4.81-2.699L211.305,44.027z"/>
		<path fill="#E9C247" d="M199.642,77.353l-5.874-3.296l17.305-30.86l5.874,3.293L199.642,77.353z M195.428,73.59l3.746,2.101
			l16.111-28.732l-3.746-2.101L195.428,73.59z"/>
	</g>
	<g>
		<path fill="#E9C247" d="M227.688,73.905l5.302,5.047l-8.783,9.225c-0.92,0.966-1.753,1.711-2.5,2.236
			c-0.747,0.526-1.476,0.819-2.187,0.883c-0.712,0.063-1.429-0.103-2.152-0.5c-0.724-0.397-1.534-1.022-2.428-1.874l-1.837-1.749
			c-0.896-0.854-1.565-1.638-2.008-2.35c-0.444-0.715-0.651-1.429-0.623-2.142c0.029-0.715,0.285-1.458,0.773-2.229
			c0.487-0.771,1.191-1.64,2.111-2.606l14.335-15.057c0.92-0.965,1.752-1.711,2.5-2.236c0.746-0.525,1.475-0.819,2.188-0.882
			c0.71-0.063,1.434,0.108,2.169,0.517c0.735,0.407,1.55,1.037,2.446,1.889l1.838,1.75c0.894,0.852,1.558,1.63,1.989,2.333
			c0.432,0.702,0.634,1.41,0.605,2.125c-0.029,0.713-0.287,1.457-0.774,2.228c-0.488,0.771-1.191,1.641-2.11,2.606l-3.601,3.782
			l-3.747-3.567l3.097-3.252c0.65-0.683,1.033-1.216,1.152-1.599c0.116-0.383-0.12-0.855-0.709-1.415l-0.565-0.54
			c-0.589-0.56-1.073-0.773-1.448-0.637c-0.377,0.135-0.89,0.546-1.54,1.229l-13.327,13.996c-0.651,0.685-1.034,1.217-1.151,1.599
			c-0.118,0.383,0.119,0.854,0.709,1.416l0.563,0.538c0.59,0.561,1.072,0.773,1.449,0.638c0.375-0.137,0.89-0.545,1.54-1.229
			l4.711-4.947l-1.554-1.481L227.688,73.905z"/>
		<path fill="#E9C247" d="M219.227,91.919c-0.719,0-1.442-0.198-2.153-0.588c-0.768-0.423-1.628-1.084-2.554-1.967l-1.839-1.749
			c-0.929-0.884-1.636-1.715-2.106-2.47c-0.506-0.817-0.747-1.655-0.712-2.489c0.033-0.821,0.324-1.673,0.868-2.529
			c0.503-0.801,1.239-1.71,2.185-2.703L227.25,62.37c0.944-0.993,1.816-1.771,2.591-2.314c0.831-0.585,1.667-0.919,2.485-0.991
			c0.82-0.071,1.675,0.125,2.519,0.59c0.774,0.431,1.64,1.098,2.57,1.982l1.837,1.75c0.928,0.883,1.631,1.71,2.09,2.457
			c0.494,0.806,0.727,1.637,0.693,2.47c-0.033,0.817-0.325,1.668-0.866,2.528c-0.513,0.808-1.248,1.715-2.186,2.701l-4.021,4.223
			l-4.629-4.407l3.515-3.695c0.762-0.798,0.96-1.194,1.012-1.358c0.016-0.052-0.049-0.319-0.546-0.792l-0.566-0.539
			c-0.509-0.484-0.752-0.508-0.795-0.508c-0.186,0.061-0.567,0.277-1.331,1.079l-13.326,13.996
			c-0.763,0.801-0.961,1.195-1.011,1.358c-0.018,0.055,0.046,0.319,0.545,0.793l0.566,0.541c0.509,0.484,0.752,0.508,0.796,0.508
			c0.184-0.061,0.568-0.28,1.329-1.081l4.291-4.505l-1.555-1.481l4.407-4.629l6.186,5.888l-9.204,9.667
			c-0.941,0.988-1.811,1.766-2.59,2.313c-0.832,0.583-1.667,0.917-2.484,0.991C219.458,91.914,219.343,91.919,219.227,91.919z
			 M232.668,60.269c-0.079,0-0.158,0.003-0.235,0.011c-0.602,0.053-1.236,0.313-1.891,0.773c-0.709,0.497-1.52,1.223-2.409,2.158
			l-14.335,15.057c-0.889,0.933-1.575,1.778-2.037,2.511c-0.427,0.674-0.656,1.321-0.68,1.927c-0.024,0.595,0.151,1.181,0.53,1.795
			c0.415,0.666,1.059,1.417,1.911,2.23l1.838,1.749c0.851,0.81,1.625,1.409,2.3,1.781c0.612,0.336,1.216,0.484,1.806,0.427
			c0.599-0.054,1.236-0.315,1.89-0.773c0.713-0.501,1.523-1.228,2.409-2.158l8.363-8.783l-4.418-4.207l-2.727,2.863l1.556,1.481
			l-5.133,5.391c-0.73,0.768-1.293,1.207-1.773,1.381c-0.142,0.05-0.289,0.075-0.439,0.075h-0.001c-0.502,0-1.039-0.275-1.637-0.844
			l-0.566-0.541c-0.286-0.271-1.158-1.101-0.87-2.035c0.148-0.485,0.559-1.07,1.292-1.841l13.327-13.996
			c0.733-0.771,1.298-1.209,1.775-1.381c0.593-0.216,1.296,0.029,2.075,0.768l0.566,0.54c0.285,0.272,1.156,1.101,0.87,2.034
			c-0.151,0.489-0.562,1.074-1.292,1.843l-2.675,2.81l2.863,2.725l3.18-3.341c0.884-0.927,1.569-1.772,2.037-2.51
			c0.426-0.676,0.655-1.325,0.679-1.927c0.024-0.596-0.144-1.178-0.515-1.782c-0.404-0.656-1.039-1.4-1.891-2.211l-1.837-1.748
			c-0.854-0.814-1.635-1.419-2.321-1.798C233.711,60.422,233.178,60.269,232.668,60.269z"/>
	</g>
	<g>
		<path fill="#E9C247" d="M246.58,96.203l2.547,4.333l-4.46,2.622l-2.547-4.334l-8.666,5.095l3.14,5.342l-4.46,2.622l-5.934-10.098
			l29.45-17.31l5.935,10.097l-4.459,2.622l-3.14-5.344L246.58,96.203z"/>
		<path fill="#E9C247" d="M231.917,112.718l-6.554-11.149l30.503-17.928l6.553,11.148l-5.512,3.24l-3.14-5.344l-6.352,3.735
			l2.546,4.334l-5.512,3.239l-2.545-4.333l-7.616,4.476l3.14,5.342L231.917,112.718z M227.034,102.002l5.317,9.045l3.407-2.004
			l-3.141-5.343l9.72-5.712l2.546,4.334l3.409-2.004l-2.548-4.334l8.457-4.971l3.142,5.345l3.406-2.004l-5.317-9.046
			L227.034,102.002z"/>
	</g>
	<g>
		<path fill="#E9C247" d="M245.803,134.773c-1.073,0.271-2.095,0.578-3.064,0.923c-0.97,0.346-1.825,0.778-2.565,1.3l-1.396-5.537
			c0.473-0.387,1.167-0.729,2.082-1.027c0.915-0.298,1.893-0.578,2.934-0.84l6.057-1.528c1.009-0.254,1.717-0.575,2.123-0.962
			c0.406-0.387,0.497-1.024,0.274-1.906l-0.513-2.035l-14.15,3.566l-1.347-5.346l33.125-8.352l2.219,8.803
			c0.302,1.197,0.448,2.209,0.438,3.035c-0.011,0.825-0.219,1.53-0.624,2.119c-0.405,0.589-1.018,1.089-1.837,1.496
			c-0.82,0.408-1.876,0.775-3.17,1.101l-3.55,0.896c-1.893,0.476-3.37,0.639-4.431,0.487c-1.062-0.151-1.905-0.735-2.531-1.752
			c-0.069,1.19-0.542,2.107-1.42,2.749c-0.879,0.64-2.265,1.199-4.158,1.676L245.803,134.773z M264.331,124.417
			c0.914-0.23,1.522-0.478,1.826-0.739s0.355-0.786,0.158-1.573l-0.622-2.462l-8.943,2.255l0.62,2.462
			c0.19,0.757,0.483,1.186,0.878,1.289c0.395,0.101,1.049,0.036,1.965-0.193L264.331,124.417z"/>
		<path fill="#E9C247" d="M239.798,138.009l-1.707-6.775l0.3-0.244c0.535-0.44,1.28-0.811,2.278-1.137
			c0.915-0.299,1.915-0.584,2.974-0.851l6.057-1.528c1.123-0.283,1.627-0.597,1.851-0.811c0.291-0.279,0.217-0.869,0.104-1.316
			l-0.364-1.445l-14.149,3.567l-1.646-6.53l34.308-8.649l2.368,9.394c0.314,1.244,0.467,2.318,0.456,3.192
			c-0.011,0.943-0.258,1.771-0.73,2.458c-0.462,0.672-1.158,1.243-2.068,1.695c-0.857,0.426-1.964,0.812-3.293,1.146l-3.548,0.896
			c-1.974,0.496-3.542,0.658-4.668,0.5c-0.805-0.116-1.508-0.443-2.098-0.978c-0.271,0.751-0.74,1.375-1.407,1.862
			c-0.952,0.694-2.381,1.275-4.367,1.776l-4.496,1.133c-1.045,0.263-2.057,0.568-3.009,0.906c-0.917,0.328-1.731,0.74-2.419,1.225
			L239.798,138.009z M239.47,131.712l1.087,4.315c0.599-0.347,1.262-0.65,1.978-0.904c0.987-0.353,2.037-0.667,3.12-0.942
			l4.495-1.133c1.807-0.456,3.135-0.987,3.947-1.578c0.73-0.534,1.113-1.283,1.171-2.29l0.111-1.937l1.017,1.651
			c0.531,0.862,1.217,1.342,2.098,1.468c0.986,0.14,2.396-0.023,4.196-0.475l3.549-0.895c1.244-0.313,2.269-0.669,3.047-1.057
			c0.722-0.358,1.263-0.794,1.607-1.294c0.338-0.491,0.507-1.073,0.516-1.781c0.009-0.768-0.132-1.736-0.419-2.878l-2.069-8.211
			l-31.941,8.053l1.049,4.163l14.149-3.567l0.662,2.627c0.279,1.107,0.131,1.947-0.445,2.497c-0.487,0.466-1.27,0.829-2.394,1.113
			l-6.057,1.527c-1.032,0.26-2.006,0.54-2.894,0.829C240.395,131.226,239.866,131.46,239.47,131.712z M258.685,126.303
			c-0.224,0-0.417-0.021-0.588-0.065c-0.627-0.161-1.07-0.742-1.318-1.729l-0.77-3.054l10.127-2.552l0.769,3.052
			c0.098,0.384,0.39,1.549-0.35,2.186c-0.388,0.332-1.047,0.608-2.076,0.868l-4.116,1.037
			C259.673,126.22,259.124,126.303,258.685,126.303z M257.49,122.34l0.472,1.87c0.155,0.619,0.348,0.823,0.438,0.848
			c0.049,0.012,0.139,0.025,0.285,0.025l0,0c0.333,0,0.797-0.073,1.378-0.22l4.118-1.039c1.071-0.269,1.448-0.497,1.579-0.609
			c0.043-0.036,0.131-0.295-0.038-0.962l-0.47-1.87L257.49,122.34z"/>
	</g>
	<g>
		<path fill="#E9C247" d="M249.717,156.181c0.714,0.037,1.334,0.002,1.862-0.101c0.524-0.105,1.041-0.3,1.543-0.583
			c0.504-0.285,1.02-0.691,1.552-1.217c0.531-0.529,1.174-1.181,1.93-1.956c0.859-0.902,1.638-1.653,2.337-2.253
			c0.697-0.601,1.404-1.078,2.124-1.433c0.717-0.355,1.511-0.6,2.382-0.736c0.869-0.136,1.89-0.174,3.06-0.115l1.852,0.093
			c1.331,0.066,2.439,0.21,3.324,0.435c0.885,0.223,1.584,0.583,2.097,1.081c0.513,0.498,0.854,1.151,1.025,1.958
			c0.171,0.806,0.227,1.826,0.164,3.061l-0.116,2.34c-0.063,1.234-0.219,2.245-0.47,3.03c-0.251,0.785-0.657,1.401-1.216,1.844
			c-0.561,0.445-1.292,0.733-2.194,0.869c-0.903,0.133-2.02,0.167-3.352,0.1l-4.729-0.236l0.26-5.166l3.997,0.2
			c0.942,0.048,1.595-0.018,1.964-0.194c0.367-0.177,0.57-0.656,0.61-1.436l0.029-0.585c0.04-0.813-0.105-1.317-0.438-1.512
			c-0.333-0.195-0.954-0.316-1.864-0.363l-1.169-0.058c-0.715-0.036-1.336-0.002-1.862,0.102c-0.527,0.104-1.033,0.298-1.52,0.583
			c-0.486,0.285-1.003,0.684-1.549,1.193c-0.548,0.51-1.201,1.169-1.956,1.979c-0.859,0.869-1.637,1.61-2.334,2.228
			c-0.7,0.617-1.417,1.109-2.151,1.48c-0.734,0.37-1.529,0.624-2.383,0.761c-0.854,0.135-1.866,0.175-3.036,0.116l-2.632-0.132
			c-1.333-0.066-2.441-0.221-3.324-0.459c-0.883-0.24-1.583-0.6-2.096-1.082c-0.514-0.483-0.855-1.135-1.026-1.958
			c-0.168-0.824-0.224-1.836-0.164-3.038l0.117-2.34c0.062-1.236,0.218-2.245,0.469-3.03c0.25-0.786,0.657-1.401,1.216-1.845
			c0.56-0.445,1.291-0.734,2.194-0.866c0.902-0.134,2.019-0.169,3.352-0.102l5.703,0.286l-0.256,5.118l-4.972-0.25
			c-0.943-0.046-1.597,0.01-1.963,0.17c-0.367,0.161-0.569,0.648-0.61,1.46l-0.032,0.635c-0.039,0.779,0.115,1.267,0.463,1.463
			c0.349,0.196,0.994,0.318,1.938,0.366L249.717,156.181z"/>
		<path fill="#E9C247" d="M268.876,163.242c-0.404,0-0.833-0.011-1.286-0.035l-5.337-0.266l0.319-6.384l4.606,0.229
			c1.023,0.049,1.528-0.066,1.67-0.135c0.083-0.04,0.232-0.277,0.264-0.917l0.029-0.583c0.041-0.801-0.136-0.956-0.137-0.957
			c-0.111-0.065-0.487-0.223-1.585-0.28l-1.168-0.058c-0.665-0.034-1.239-0.004-1.713,0.092c-0.458,0.09-0.905,0.262-1.329,0.511
			c-0.445,0.259-0.93,0.634-1.444,1.113c-0.541,0.503-1.188,1.158-1.926,1.948c-0.869,0.88-1.664,1.639-2.375,2.268
			c-0.733,0.648-1.501,1.176-2.28,1.569c-0.791,0.398-1.653,0.673-2.562,0.819c-0.901,0.141-1.955,0.185-3.164,0.123l-2.632-0.132
			c-1.365-0.068-2.527-0.23-3.453-0.48c-0.975-0.264-1.766-0.677-2.352-1.225c-0.606-0.569-1.012-1.335-1.207-2.279
			c-0.18-0.873-0.24-1.947-0.178-3.191l0.118-2.34c0.064-1.281,0.231-2.353,0.497-3.186c0.288-0.9,0.765-1.62,1.418-2.137
			c0.644-0.511,1.479-0.845,2.484-0.994c0.94-0.139,2.101-0.175,3.472-0.106l6.311,0.316l-0.316,6.337l-5.583-0.281
			c-1.024-0.052-1.544,0.058-1.687,0.12c-0.053,0.022-0.212,0.243-0.246,0.931l-0.032,0.635c-0.031,0.627,0.088,0.864,0.154,0.902
			c0.148,0.084,0.562,0.232,1.669,0.288l1.852,0.093c0.656,0.034,1.233,0.001,1.714-0.092c0.457-0.092,0.917-0.264,1.36-0.515
			c0.45-0.254,0.93-0.631,1.422-1.119c0.528-0.525,1.169-1.175,1.922-1.949c0.861-0.903,1.662-1.676,2.375-2.29
			c0.733-0.63,1.49-1.142,2.251-1.518c0.771-0.38,1.632-0.646,2.559-0.79c0.904-0.142,1.972-0.186,3.184-0.122l1.852,0.093
			c1.37,0.067,2.529,0.221,3.445,0.453c0.984,0.247,1.782,0.664,2.37,1.235c0.599,0.58,1.001,1.344,1.198,2.269
			c0.182,0.855,0.241,1.938,0.177,3.218l-0.117,2.34c-0.064,1.28-0.231,2.352-0.497,3.186c-0.29,0.901-0.766,1.62-1.418,2.137
			c-0.64,0.508-1.476,0.843-2.483,0.993C270.432,163.195,269.696,163.242,268.876,163.242z M263.533,161.783l4.12,0.208
			c1.281,0.061,2.37,0.032,3.231-0.096c0.792-0.118,1.434-0.368,1.904-0.742c0.466-0.37,0.798-0.879,1.014-1.555
			c0.234-0.731,0.381-1.699,0.441-2.873l0.117-2.34c0.059-1.176,0.008-2.154-0.152-2.905c-0.147-0.693-0.426-1.233-0.853-1.646
			c-0.434-0.421-1.045-0.732-1.821-0.928c-0.839-0.213-1.917-0.354-3.207-0.417l-1.852-0.093c-1.124-0.058-2.114-0.021-2.935,0.108
			c-0.806,0.125-1.547,0.354-2.206,0.679c-0.67,0.332-1.342,0.786-1.998,1.349c-0.684,0.588-1.454,1.331-2.292,2.211
			c-0.763,0.783-1.408,1.437-1.94,1.968c-0.571,0.565-1.137,1.008-1.682,1.316c-0.558,0.313-1.137,0.533-1.724,0.649
			c-0.583,0.113-1.253,0.151-2.012,0.112l-1.853-0.092c-1.063-0.055-1.764-0.194-2.206-0.444c-0.563-0.319-0.824-1-0.772-2.025
			l0.031-0.635c0.02-0.395,0.08-1.597,0.975-1.988c0.46-0.201,1.18-0.272,2.238-0.221l4.361,0.218l0.197-3.898l-5.095-0.256
			c-1.282-0.062-2.372-0.031-3.231,0.096c-0.791,0.116-1.432,0.366-1.904,0.742c-0.468,0.371-0.799,0.877-1.014,1.552
			c-0.234,0.733-0.382,1.701-0.441,2.875l-0.118,2.34c-0.057,1.143-0.004,2.112,0.154,2.885c0.146,0.701,0.423,1.238,0.847,1.635
			c0.437,0.411,1.056,0.726,1.837,0.938c0.841,0.227,1.915,0.376,3.195,0.439l2.632,0.132c1.119,0.053,2.094,0.02,2.909-0.111
			c0.786-0.125,1.527-0.362,2.205-0.703c0.687-0.346,1.367-0.814,2.021-1.393c0.691-0.611,1.466-1.351,2.305-2.199
			c0.744-0.798,1.412-1.475,1.973-1.998c0.579-0.539,1.137-0.968,1.66-1.272c0.541-0.318,1.116-0.539,1.709-0.657
			c0.572-0.113,1.245-0.15,2.01-0.112l1.169,0.058c1.034,0.053,1.714,0.195,2.142,0.446c0.816,0.479,0.757,1.676,0.737,2.068
			l-0.029,0.585c-0.051,1.018-0.372,1.674-0.954,1.955c-0.471,0.224-1.194,0.311-2.259,0.253l-3.386-0.169L263.533,161.783z"/>
	</g>
</g>
<g>
	<path fill="#E9C247" d="M80.054,242.806l-1.718-1.438l-1.682,1.574l-1.789-1.498l11.997-11.044l2.745,2.3l-8.791,13.731l-2-1.678
		L80.054,242.806z M80.067,239.805l1.238,1.036l0.277-0.398c1.038-1.502,1.981-2.866,2.836-4.088
		c0.854-1.223,1.652-2.338,2.396-3.343c-0.861,0.906-1.818,1.887-2.873,2.942c-1.056,1.055-2.231,2.224-3.528,3.51L80.067,239.805z"
		/>
	<path fill="#E9C247" d="M89.847,251.56c-0.182,0.287-0.344,0.616-0.487,0.983l-1.841-1.278c0.034-0.239,0.24-0.668,0.615-1.288
		c-0.361,0.331-0.739,0.522-1.132,0.577c-0.395,0.053-0.832-0.085-1.313-0.42l-0.398-0.275c-0.582-0.405-0.879-0.822-0.888-1.25
		c-0.011-0.432,0.22-0.987,0.695-1.67l6.039-8.686l1.934,1.343l-5.524,7.947c-0.219,0.316-0.338,0.563-0.356,0.737
		c-0.02,0.175,0.098,0.35,0.351,0.525l0.209,0.145c0.253,0.177,0.491,0.212,0.717,0.105c0.223-0.107,0.45-0.326,0.679-0.654
		l5.406-7.776l1.934,1.344l-6.053,8.707C90.222,250.979,90.027,251.273,89.847,251.56z"/>
	<path fill="#E9C247" d="M98.734,243.364l0.695,0.411l1.411-2.385l2.027,1.198l-1.411,2.387l0.975,0.576l-0.999,1.69l-0.975-0.576
		l-4.008,6.779c-0.274,0.465-0.513,0.919-0.713,1.364c-0.2,0.446-0.337,0.896-0.411,1.354l-2.128-1.257
		c0.027-0.29,0.142-0.642,0.344-1.058c0.202-0.417,0.441-0.858,0.715-1.322l4.174-7.059l-0.697-0.413L98.734,243.364z"/>
	<path fill="#E9C247" d="M106.029,258.574c-0.254,0.51-0.5,0.918-0.735,1.223c-0.237,0.303-0.495,0.509-0.774,0.62
		c-0.278,0.112-0.59,0.134-0.934,0.064c-0.344-0.065-0.751-0.217-1.221-0.451l-1.116-0.555c-0.47-0.233-0.834-0.467-1.098-0.7
		c-0.262-0.233-0.43-0.492-0.503-0.777c-0.074-0.287-0.06-0.615,0.039-0.988c0.1-0.371,0.275-0.813,0.529-1.323l3.174-6.393
		c0.253-0.509,0.497-0.914,0.73-1.211c0.234-0.295,0.486-0.5,0.759-0.616c0.271-0.113,0.58-0.137,0.923-0.068
		c0.346,0.066,0.751,0.216,1.221,0.449l1.117,0.556c0.469,0.232,0.835,0.466,1.097,0.699s0.433,0.495,0.513,0.785
		c0.08,0.289,0.072,0.616-0.023,0.981c-0.095,0.365-0.27,0.803-0.522,1.313L106.029,258.574z M102.428,256.477
		c-0.179,0.359-0.263,0.626-0.256,0.802c0.008,0.175,0.162,0.337,0.466,0.488l0.269,0.135c0.291,0.143,0.507,0.164,0.651,0.065
		c0.144-0.102,0.305-0.331,0.485-0.689l2.918-5.876c0.178-0.357,0.263-0.625,0.255-0.8c-0.007-0.176-0.155-0.336-0.445-0.479
		l-0.269-0.134c-0.304-0.151-0.528-0.177-0.671-0.076c-0.146,0.1-0.306,0.33-0.485,0.689L102.428,256.477z"/>
	<path fill="#E9C247" d="M112.502,264.321l3.528-9.012c0.142-0.357,0.204-0.623,0.188-0.794c-0.016-0.171-0.167-0.313-0.454-0.426
		l-0.259-0.101c-0.286-0.111-0.524-0.089-0.709,0.07c-0.187,0.159-0.353,0.425-0.498,0.797l-3.453,8.819l-2.195-0.86l4.649-11.871
		l2.064,0.807l-0.58,1.485c0.282-0.469,0.615-0.789,0.997-0.962c0.381-0.173,0.866-0.146,1.456,0.085l0.473,0.188
		c0.659,0.256,1.041,0.591,1.143,1.004c0.104,0.413,0.005,1.006-0.299,1.779l-3.857,9.852L112.502,264.321z"/>
	<path fill="#E9C247" d="M125.698,265.668c-0.161,0.546-0.332,0.99-0.512,1.331c-0.181,0.34-0.399,0.589-0.652,0.747
		c-0.256,0.157-0.559,0.232-0.91,0.225c-0.351-0.005-0.779-0.082-1.281-0.231l-1.196-0.351c-0.503-0.147-0.903-0.314-1.203-0.497
		c-0.298-0.184-0.51-0.412-0.63-0.68c-0.122-0.268-0.167-0.595-0.134-0.979c0.032-0.383,0.128-0.848,0.29-1.395l2.013-6.847
		c0.16-0.548,0.33-0.987,0.508-1.321c0.177-0.332,0.391-0.577,0.639-0.738c0.246-0.16,0.547-0.235,0.898-0.23
		c0.35,0.007,0.777,0.083,1.281,0.232l1.196,0.353c0.501,0.146,0.903,0.313,1.202,0.497c0.298,0.183,0.514,0.413,0.643,0.681
		c0.128,0.27,0.177,0.595,0.147,0.971c-0.03,0.377-0.125,0.838-0.286,1.385L125.698,265.668z M121.787,264.229
		c-0.113,0.384-0.151,0.663-0.113,0.834c0.038,0.171,0.22,0.304,0.545,0.399l0.288,0.085c0.31,0.093,0.527,0.075,0.651-0.049
		c0.125-0.125,0.244-0.378,0.357-0.762l1.851-6.293c0.112-0.385,0.15-0.664,0.112-0.834c-0.039-0.171-0.212-0.304-0.523-0.393
		l-0.288-0.085c-0.324-0.094-0.549-0.081-0.675,0.042c-0.124,0.123-0.243,0.378-0.356,0.762L121.787,264.229z"/>
	<path fill="#E9C247" d="M129.174,269.494l2.3-12.542l2.181,0.4l-0.287,1.568c0.188-0.514,0.453-0.892,0.794-1.135
		c0.341-0.242,0.823-0.307,1.444-0.193l0.41,0.077c0.544,0.099,0.927,0.275,1.148,0.526c0.219,0.252,0.323,0.628,0.31,1.127
		c0.198-0.401,0.465-0.694,0.794-0.877c0.331-0.181,0.769-0.223,1.313-0.123l0.433,0.081c0.696,0.126,1.134,0.383,1.315,0.769
		c0.179,0.385,0.194,0.987,0.044,1.805l-1.909,10.403l-2.318-0.423l1.747-9.52c0.07-0.378,0.08-0.651,0.032-0.817
		c-0.049-0.166-0.224-0.275-0.526-0.33l-0.182-0.034c-0.304-0.055-0.535,0.01-0.694,0.201s-0.277,0.483-0.349,0.875l-1.708,9.316
		l-2.294-0.422l1.746-9.52c0.069-0.377,0.076-0.651,0.021-0.817c-0.056-0.167-0.236-0.277-0.538-0.333l-0.182-0.035
		c-0.304-0.056-0.531,0.014-0.684,0.203c-0.152,0.192-0.264,0.484-0.337,0.878l-1.708,9.317L129.174,269.494z"/>
	<path fill="#E9C247" d="M150.495,269.535c-0.044,0.569-0.12,1.037-0.227,1.407c-0.104,0.372-0.268,0.659-0.484,0.867
		c-0.217,0.207-0.497,0.343-0.842,0.409c-0.345,0.066-0.78,0.078-1.301,0.039l-1.244-0.098c-0.522-0.041-0.949-0.121-1.28-0.239
		c-0.33-0.118-0.583-0.295-0.757-0.534c-0.175-0.236-0.286-0.546-0.333-0.929c-0.049-0.382-0.049-0.856-0.005-1.427l0.553-7.116
		c0.044-0.568,0.119-1.033,0.225-1.395c0.104-0.363,0.262-0.648,0.47-0.856c0.21-0.208,0.488-0.344,0.833-0.41
		c0.345-0.065,0.779-0.079,1.3-0.039l1.244,0.098c0.521,0.04,0.948,0.119,1.279,0.238c0.33,0.119,0.586,0.297,0.77,0.536
		c0.18,0.236,0.295,0.544,0.344,0.918c0.049,0.375,0.051,0.846,0.006,1.414L150.495,269.535z M146.37,268.937
		c-0.03,0.399-0.009,0.679,0.062,0.839c0.073,0.16,0.279,0.254,0.616,0.279l0.301,0.023c0.322,0.025,0.53-0.037,0.628-0.183
		c0.096-0.146,0.16-0.419,0.19-0.82l0.509-6.54c0.031-0.399,0.009-0.679-0.062-0.838c-0.073-0.16-0.271-0.252-0.593-0.278
		l-0.299-0.024c-0.337-0.025-0.555,0.037-0.652,0.182c-0.096,0.146-0.159,0.419-0.19,0.819L146.37,268.937z"/>
	<path fill="#E9C247" d="M160.954,271.346c0.018,0.339,0.075,0.7,0.171,1.084l-2.241,0.02c-0.109-0.214-0.191-0.682-0.242-1.406
		c-0.104,0.477-0.302,0.854-0.592,1.125c-0.29,0.272-0.728,0.41-1.312,0.415l-0.486,0.004c-0.708,0.007-1.191-0.162-1.448-0.508
		c-0.257-0.342-0.389-0.931-0.396-1.763l-0.093-10.579l2.357-0.02l0.084,9.679c0.004,0.384,0.048,0.653,0.134,0.807
		c0.085,0.154,0.283,0.229,0.59,0.225l0.254-0.002c0.308-0.003,0.522-0.111,0.645-0.328c0.121-0.218,0.18-0.525,0.176-0.925
		l-0.082-9.471l2.356-0.02l0.092,10.602C160.924,270.653,160.936,271.008,160.954,271.346z"/>
	<path fill="#E9C247" d="M168.726,268.252c-0.022-0.229-0.068-0.426-0.138-0.588c-0.07-0.164-0.18-0.313-0.332-0.445
		c-0.151-0.133-0.351-0.272-0.597-0.42c-0.246-0.146-0.563-0.318-0.952-0.513c-0.455-0.22-0.83-0.436-1.129-0.648
		c-0.298-0.212-0.543-0.444-0.738-0.695c-0.194-0.253-0.341-0.534-0.438-0.841c-0.099-0.309-0.168-0.668-0.206-1.082l-0.069-0.713
		c-0.053-0.568-0.059-1.039-0.017-1.414c0.041-0.376,0.152-0.683,0.33-0.925c0.18-0.24,0.432-0.424,0.761-0.547
		c0.328-0.125,0.754-0.21,1.276-0.26l1.103-0.104c0.506-0.048,0.932-0.041,1.278,0.019c0.345,0.06,0.628,0.192,0.849,0.395
		c0.221,0.206,0.389,0.486,0.509,0.846c0.119,0.36,0.205,0.824,0.259,1.391l0.145,1.54l-2.208,0.209l-0.117-1.241
		c-0.037-0.399-0.105-0.671-0.205-0.816c-0.098-0.146-0.31-0.205-0.63-0.173l-0.322,0.031c-0.322,0.03-0.519,0.126-0.588,0.286
		c-0.071,0.161-0.086,0.443-0.049,0.84l0.026,0.277c0.022,0.23,0.067,0.427,0.137,0.589c0.07,0.165,0.18,0.312,0.332,0.444
		c0.151,0.133,0.351,0.274,0.597,0.42c0.245,0.147,0.563,0.318,0.952,0.513c0.455,0.222,0.831,0.436,1.13,0.649
		c0.297,0.211,0.543,0.443,0.739,0.696c0.193,0.252,0.339,0.533,0.438,0.84c0.099,0.308,0.167,0.669,0.206,1.082l0.087,0.919
		c0.054,0.568,0.056,1.043,0.007,1.428c-0.049,0.382-0.164,0.695-0.341,0.937c-0.179,0.242-0.432,0.423-0.76,0.547
		c-0.33,0.125-0.747,0.21-1.251,0.257l-1.104,0.104c-0.521,0.05-0.956,0.043-1.3-0.017c-0.346-0.06-0.63-0.192-0.85-0.395
		s-0.387-0.492-0.498-0.86c-0.112-0.366-0.195-0.835-0.249-1.402l-0.166-1.748l2.208-0.209l0.139,1.471
		c0.037,0.398,0.102,0.673,0.194,0.819c0.091,0.146,0.305,0.203,0.641,0.169l0.323-0.03c0.321-0.03,0.519-0.126,0.587-0.286
		c0.07-0.162,0.086-0.442,0.049-0.84L168.726,268.252z"/>
	<path fill="#E9C247" d="M177.53,254.301l4.184-0.978c0.57-0.133,1.05-0.194,1.441-0.183c0.389,0.012,0.721,0.117,0.996,0.312
		c0.275,0.198,0.507,0.491,0.692,0.881c0.188,0.393,0.352,0.896,0.497,1.51l2.187,9.358c0.145,0.616,0.219,1.139,0.226,1.571
		c0.006,0.434-0.071,0.8-0.23,1.099c-0.16,0.298-0.412,0.539-0.755,0.721c-0.346,0.184-0.802,0.344-1.373,0.476l-4.183,0.979
		L177.53,254.301z M184.365,266.792c0.375-0.085,0.586-0.222,0.629-0.405c0.044-0.184,0.016-0.494-0.087-0.929l-2.028-8.682
		c-0.102-0.436-0.213-0.725-0.335-0.871c-0.12-0.146-0.369-0.174-0.744-0.088l-1.169,0.273l2.565,10.977L184.365,266.792z"/>
	<path fill="#E9C247" d="M187.428,251.783l2.248-0.706l0.635,2.029l-2.248,0.702L187.428,251.783z M194.506,266.508l-2.25,0.706
		l-3.808-12.17l2.248-0.703L194.506,266.508z"/>
	<path fill="#E9C247" d="M197.507,256.209c0.475,0.841,0.96,1.739,1.456,2.694c0.496,0.956,0.948,1.875,1.356,2.756
		c-0.293-0.925-0.581-1.909-0.861-2.949c-0.279-1.039-0.528-2.029-0.744-2.968l-0.906-3.987l1.981-0.77l2.769,12.605l-2.842,1.105
		l-6.471-11.166l2.238-0.871L197.507,256.209z"/>
	<path fill="#E9C247" d="M200.727,246.784l2.135-0.999l0.901,1.925l-2.134,0.999L200.727,246.784z M209.718,260.428l-2.134,0.999
		l-5.407-11.546l2.133-1L209.718,260.428z"/>
	<path fill="#E9C247" d="M215.051,253.583c-0.112-0.203-0.233-0.364-0.363-0.487c-0.13-0.121-0.29-0.213-0.482-0.273
		c-0.191-0.061-0.431-0.109-0.713-0.146c-0.285-0.035-0.644-0.065-1.08-0.087c-0.504-0.02-0.934-0.067-1.293-0.141
		c-0.357-0.074-0.676-0.188-0.954-0.342c-0.28-0.153-0.526-0.351-0.74-0.593c-0.214-0.242-0.42-0.545-0.623-0.909l-0.348-0.626
		c-0.275-0.496-0.469-0.927-0.583-1.289c-0.112-0.359-0.134-0.686-0.068-0.979c0.066-0.292,0.227-0.56,0.477-0.806
		c0.253-0.244,0.607-0.495,1.065-0.749l0.97-0.539c0.444-0.246,0.836-0.413,1.178-0.495c0.339-0.084,0.652-0.076,0.936,0.021
		c0.284,0.099,0.551,0.289,0.805,0.57c0.254,0.282,0.519,0.674,0.796,1.172l0.75,1.353l-1.939,1.076l-0.606-1.092
		c-0.193-0.349-0.364-0.57-0.513-0.666c-0.15-0.092-0.366-0.061-0.648,0.096l-0.282,0.155c-0.284,0.157-0.425,0.325-0.425,0.5
		c0.001,0.178,0.099,0.439,0.292,0.788l0.134,0.244c0.112,0.201,0.233,0.364,0.362,0.485c0.131,0.124,0.291,0.213,0.483,0.275
		c0.192,0.06,0.43,0.109,0.714,0.144c0.285,0.038,0.645,0.067,1.079,0.088c0.505,0.021,0.935,0.067,1.295,0.143
		c0.357,0.073,0.676,0.187,0.954,0.341c0.28,0.154,0.526,0.352,0.739,0.593c0.214,0.243,0.422,0.546,0.624,0.909l0.448,0.809
		c0.276,0.498,0.468,0.932,0.578,1.303c0.109,0.373,0.13,0.704,0.063,0.995c-0.067,0.293-0.227,0.562-0.477,0.807
		c-0.252,0.245-0.599,0.49-1.045,0.737l-0.969,0.538c-0.457,0.254-0.856,0.424-1.197,0.506c-0.341,0.084-0.654,0.079-0.936-0.02
		c-0.285-0.1-0.552-0.294-0.801-0.587c-0.251-0.293-0.515-0.688-0.791-1.186l-0.851-1.535l1.938-1.077l0.718,1.293
		c0.194,0.351,0.362,0.575,0.504,0.671c0.142,0.097,0.361,0.063,0.657-0.101l0.284-0.156c0.282-0.158,0.424-0.324,0.423-0.5
		c0-0.174-0.096-0.438-0.292-0.788L215.051,253.583z"/>
	<path fill="#E9C247" d="M213.42,239.928l1.978-1.283l1.156,1.785l-1.978,1.281L213.42,239.928z M224.189,252.218l-1.977,1.28
		l-6.933-10.703l1.978-1.282L224.189,252.218z"/>
	<path fill="#E9C247" d="M231.037,243.816c0.343,0.456,0.597,0.857,0.761,1.205c0.167,0.349,0.235,0.672,0.208,0.971
		c-0.026,0.298-0.146,0.585-0.363,0.864c-0.215,0.276-0.532,0.571-0.951,0.886l-0.999,0.749c-0.417,0.314-0.791,0.536-1.116,0.665
		c-0.328,0.13-0.635,0.163-0.923,0.101c-0.287-0.063-0.575-0.223-0.863-0.478c-0.288-0.256-0.604-0.613-0.945-1.069l-4.285-5.706
		c-0.34-0.455-0.592-0.854-0.753-1.197c-0.16-0.341-0.229-0.659-0.21-0.954c0.02-0.293,0.139-0.58,0.354-0.857
		c0.215-0.277,0.532-0.571,0.951-0.888l0.998-0.749c0.418-0.314,0.791-0.536,1.117-0.665c0.327-0.128,0.637-0.165,0.931-0.106
		c0.294,0.059,0.583,0.213,0.868,0.462c0.283,0.249,0.595,0.601,0.936,1.057L231.037,243.816z M227.547,246.091
		c0.239,0.319,0.439,0.516,0.601,0.589c0.16,0.072,0.375,0.006,0.646-0.198l0.239-0.179c0.26-0.195,0.376-0.379,0.352-0.552
		c-0.025-0.176-0.158-0.422-0.397-0.742l-3.939-5.247c-0.241-0.319-0.44-0.516-0.6-0.588s-0.371-0.012-0.628,0.182l-0.241,0.181
		c-0.272,0.204-0.394,0.392-0.37,0.565c0.024,0.175,0.158,0.42,0.397,0.742L227.547,246.091z"/>
	<path fill="#E9C247" d="M239.188,240.546l-6.353-7.302c-0.252-0.291-0.459-0.468-0.618-0.534s-0.354,0.003-0.587,0.206
		l-0.208,0.182c-0.233,0.202-0.322,0.422-0.268,0.659c0.054,0.24,0.213,0.509,0.476,0.812l6.217,7.144l-1.777,1.546l-8.37-9.619
		l1.672-1.455l1.046,1.202c-0.284-0.467-0.415-0.91-0.391-1.328c0.024-0.418,0.273-0.834,0.75-1.249l0.384-0.334
		c0.533-0.465,1.007-0.648,1.42-0.548c0.414,0.1,0.895,0.461,1.439,1.089l6.944,7.981L239.188,240.546z"/>
</g>
<g>
	<path fill="#E9C247" d="M73.381,185.111l1.349,3.193l-5.555,2.347c-0.581,0.244-1.084,0.411-1.507,0.498
		c-0.424,0.085-0.795,0.076-1.116-0.031c-0.32-0.106-0.6-0.313-0.84-0.624c-0.238-0.309-0.471-0.731-0.7-1.271l-0.466-1.105
		c-0.229-0.54-0.371-1.006-0.428-1.398c-0.058-0.394-0.013-0.745,0.133-1.05c0.148-0.304,0.399-0.579,0.756-0.819
		c0.357-0.244,0.826-0.488,1.409-0.733l9.065-3.83c0.582-0.244,1.083-0.411,1.507-0.497c0.423-0.086,0.794-0.077,1.116,0.03
		c0.32,0.106,0.603,0.317,0.843,0.631c0.242,0.317,0.479,0.746,0.706,1.284l0.467,1.106c0.228,0.541,0.369,1.001,0.423,1.388
		c0.056,0.387,0.009,0.732-0.139,1.036c-0.146,0.306-0.399,0.579-0.756,0.822c-0.358,0.242-0.828,0.487-1.409,0.732l-2.277,0.961
		l-0.952-2.255l1.957-0.827c0.411-0.174,0.678-0.332,0.802-0.476c0.124-0.145,0.11-0.395-0.04-0.749l-0.145-0.34
		c-0.15-0.355-0.319-0.538-0.509-0.551c-0.188-0.012-0.488,0.07-0.898,0.243l-8.427,3.559c-0.412,0.173-0.68,0.333-0.802,0.475
		c-0.122,0.146-0.109,0.395,0.04,0.75l0.144,0.339c0.149,0.356,0.32,0.54,0.508,0.55c0.188,0.012,0.488-0.068,0.901-0.242
		l2.978-1.26l-0.395-0.936L73.381,185.111z"/>
	<path fill="#E9C247" d="M74.069,197.301l1.085,1.935l-1.372,0.767c-0.497,0.28-0.929,0.478-1.296,0.593
		c-0.367,0.118-0.697,0.144-0.989,0.078c-0.294-0.065-0.563-0.223-0.809-0.474c-0.247-0.251-0.493-0.597-0.741-1.04l-0.553-0.987
		c-0.257-0.458-0.428-0.856-0.511-1.197c-0.085-0.339-0.079-0.65,0.023-0.926c0.1-0.277,0.297-0.541,0.588-0.794
		c0.292-0.251,0.687-0.515,1.183-0.793l6.229-3.488c0.496-0.279,0.924-0.474,1.285-0.587c0.359-0.114,0.685-0.14,0.973-0.081
		c0.29,0.058,0.556,0.212,0.804,0.462c0.245,0.25,0.496,0.604,0.753,1.061l0.552,0.987c0.249,0.444,0.415,0.836,0.5,1.176
		c0.085,0.34,0.08,0.653-0.018,0.938c-0.098,0.283-0.287,0.55-0.572,0.797c-0.285,0.249-0.677,0.51-1.173,0.79l-3.749,2.1
		l-1.964-3.507l-2.237,1.254c-0.349,0.196-0.57,0.367-0.663,0.517c-0.093,0.148-0.058,0.373,0.108,0.667l0.148,0.261
		c0.157,0.284,0.325,0.424,0.5,0.42c0.175,0,0.438-0.099,0.788-0.292L74.069,197.301z M76.011,194.147l0.881,1.573l1.773-0.994
		c0.348-0.195,0.57-0.367,0.663-0.517c0.093-0.149,0.06-0.364-0.098-0.646l-0.146-0.264c-0.167-0.294-0.336-0.441-0.512-0.441
		c-0.176,0.002-0.438,0.102-0.789,0.296L76.011,194.147z"/>
	<path fill="#E9C247" d="M79.681,208.679c-0.464,0.332-0.873,0.574-1.224,0.73c-0.354,0.156-0.678,0.215-0.976,0.183
		c-0.299-0.035-0.583-0.164-0.854-0.386c-0.273-0.223-0.56-0.548-0.863-0.976l-0.723-1.015c-0.303-0.427-0.515-0.806-0.636-1.135
		c-0.121-0.331-0.146-0.638-0.075-0.924c0.069-0.285,0.237-0.57,0.5-0.853c0.263-0.279,0.626-0.584,1.09-0.915l5.819-4.134
		c0.465-0.33,0.87-0.571,1.216-0.722c0.346-0.152,0.666-0.213,0.958-0.187c0.293,0.029,0.577,0.154,0.848,0.376
		c0.271,0.223,0.56,0.547,0.863,0.974l0.721,1.017c0.304,0.427,0.516,0.807,0.637,1.136c0.12,0.33,0.147,0.64,0.082,0.933
		c-0.066,0.292-0.228,0.577-0.484,0.852c-0.257,0.278-0.617,0.582-1.083,0.911L79.681,208.679z M77.5,205.131
		c-0.328,0.232-0.528,0.426-0.606,0.584c-0.076,0.159-0.016,0.376,0.181,0.653l0.174,0.244c0.187,0.264,0.368,0.386,0.542,0.364
		c0.174-0.02,0.425-0.144,0.752-0.378l5.347-3.798c0.326-0.232,0.528-0.427,0.604-0.586c0.078-0.159,0.022-0.369-0.167-0.632
		l-0.173-0.245c-0.196-0.276-0.381-0.403-0.556-0.384c-0.175,0.02-0.425,0.146-0.751,0.378L77.5,205.131z"/>
	<path fill="#E9C247" d="M80.076,213.643l9.673-8.309l1.445,1.68l-1.367,1.175c0.516-0.321,0.989-0.49,1.422-0.505
		c0.432-0.018,0.809,0.16,1.129,0.534l0.106,0.123l-1.91,1.641l-0.121-0.141c-0.372-0.431-0.761-0.619-1.169-0.563
		c-0.409,0.056-0.921,0.35-1.54,0.882l-6.133,5.269L80.076,213.643z"/>
	<path fill="#E9C247" d="M88.374,218.694c-0.171,0.176-0.236,0.337-0.195,0.483c0.039,0.146,0.154,0.311,0.342,0.494l1.145,1.109
		c0.31,0.3,0.572,0.591,0.79,0.876c0.217,0.286,0.357,0.571,0.422,0.86c0.063,0.289,0.039,0.586-0.076,0.89
		c-0.116,0.308-0.349,0.645-0.703,1.008l-0.241,0.25c-0.676,0.695-1.289,1.024-1.838,0.985c-0.55-0.041-1.197-0.42-1.938-1.138
		l-1.609-1.559c-0.441-0.428-0.7-0.861-0.772-1.293c-0.072-0.434,0.128-0.896,0.599-1.383l0.288-0.298
		c0.462-0.475,0.955-0.62,1.48-0.432c-0.027-0.262,0.024-0.513,0.152-0.752c0.126-0.244,0.303-0.48,0.527-0.713l0.129-0.132
		c0.28-0.289,0.545-0.475,0.801-0.562c0.253-0.084,0.507-0.092,0.759-0.019c-0.138-0.39-0.109-0.78,0.086-1.168
		c0.195-0.391,0.55-0.853,1.065-1.381l2.507-2.589c0.396-0.409,0.75-0.72,1.063-0.932c0.312-0.213,0.617-0.329,0.917-0.349
		c0.3-0.02,0.604,0.052,0.912,0.223c0.306,0.169,0.648,0.436,1.025,0.8l0.63,0.611c0.431,0.417,0.73,0.799,0.899,1.145
		c0.17,0.346,0.208,0.699,0.115,1.061c0.204-0.167,0.415-0.257,0.634-0.271c0.216-0.015,0.432,0.079,0.641,0.283l0.265,0.256
		l-1.462,1.511l-0.283-0.275c-0.176-0.171-0.398-0.118-0.667,0.16l-2.667,2.753c-0.397,0.408-0.753,0.723-1.072,0.938
		c-0.318,0.22-0.626,0.338-0.925,0.358c-0.299,0.022-0.603-0.052-0.91-0.222c-0.309-0.168-0.65-0.437-1.025-0.801l-0.847-0.818
		c-0.177-0.173-0.334-0.26-0.469-0.263c-0.138-0.005-0.295,0.09-0.478,0.276L88.374,218.694z M88.384,223.43
		c0.205-0.208,0.276-0.396,0.22-0.558c-0.058-0.163-0.202-0.356-0.434-0.58l-1.177-1.141c-0.222-0.216-0.417-0.33-0.587-0.344
		c-0.17-0.013-0.345,0.074-0.526,0.263l-0.081,0.082c-0.225,0.233-0.314,0.429-0.268,0.592c0.045,0.162,0.173,0.345,0.383,0.549
		l1.163,1.124c0.232,0.227,0.433,0.361,0.601,0.408c0.171,0.047,0.373-0.052,0.608-0.296L88.384,223.43z M91.245,216.361
		c-0.277,0.289-0.444,0.514-0.495,0.678c-0.053,0.165,0.043,0.365,0.286,0.601l0.217,0.209c0.231,0.223,0.431,0.311,0.6,0.259
		c0.167-0.052,0.391-0.22,0.669-0.508l2.428-2.506c0.278-0.288,0.44-0.514,0.487-0.686c0.045-0.168-0.048-0.366-0.28-0.591
		l-0.215-0.209c-0.243-0.234-0.446-0.324-0.609-0.267c-0.163,0.057-0.383,0.228-0.662,0.516L91.245,216.361z"/>
	<path fill="#E9C247" d="M94.871,228.136l-1.825-1.49l8.065-9.877l1.825,1.49L94.871,228.136z M103.273,214.122l1.825,1.49
		l-1.345,1.646l-1.825-1.49L103.273,214.122z"/>
	<path fill="#E9C247" d="M100.512,227.193c0.228-0.33,0.452-0.609,0.675-0.84c0.222-0.23,0.466-0.408,0.73-0.534
		c0.264-0.129,0.559-0.196,0.884-0.208s0.711,0.037,1.164,0.139c0.497,0.117,0.896,0.204,1.194,0.258
		c0.3,0.054,0.55,0.065,0.754,0.024c0.202-0.036,0.377-0.132,0.528-0.281c0.148-0.151,0.328-0.377,0.537-0.681l0.013-0.02
		c0.227-0.33,0.347-0.583,0.364-0.759c0.018-0.175-0.108-0.354-0.374-0.536l-0.247-0.168c-0.269-0.183-0.479-0.235-0.637-0.157
		c-0.157,0.08-0.348,0.284-0.575,0.615l-0.703,1.03l-1.811-1.239l0.875-1.277c0.321-0.469,0.617-0.836,0.891-1.097
		c0.271-0.262,0.549-0.429,0.835-0.506c0.284-0.076,0.592-0.055,0.925,0.06c0.331,0.115,0.712,0.321,1.145,0.616l0.896,0.613
		c0.433,0.296,0.761,0.578,0.989,0.844c0.227,0.269,0.36,0.551,0.399,0.848c0.039,0.296-0.015,0.62-0.159,0.968
		c-0.146,0.349-0.379,0.758-0.701,1.229l-4.41,6.442c-0.208,0.306-0.403,0.602-0.582,0.89c-0.178,0.288-0.337,0.618-0.479,0.987
		l-1.849-1.265c0.045-0.287,0.262-0.725,0.65-1.319c-0.366,0.346-0.75,0.551-1.147,0.616c-0.399,0.064-0.846-0.076-1.341-0.414
		l-0.399-0.274c-0.585-0.399-0.881-0.813-0.889-1.239c-0.007-0.424,0.223-0.98,0.692-1.666L100.512,227.193z M105.035,227.91
		c-0.227-0.024-0.468-0.069-0.723-0.131c-0.511-0.125-0.889-0.126-1.132-0.006c-0.243,0.125-0.503,0.389-0.782,0.796l-0.612,0.897
		c-0.217,0.317-0.335,0.563-0.352,0.738c-0.017,0.174,0.101,0.349,0.356,0.522l0.229,0.158c0.255,0.173,0.488,0.205,0.707,0.092
		c0.216-0.114,0.438-0.336,0.665-0.666L105.035,227.91z"/>
	<path fill="#E9C247" d="M119.536,232.624l3.144,1.456l-2.533,5.47c-0.264,0.574-0.525,1.034-0.779,1.384
		c-0.255,0.348-0.537,0.591-0.847,0.728c-0.31,0.138-0.656,0.172-1.042,0.104c-0.383-0.068-0.841-0.224-1.371-0.472l-1.091-0.504
		c-0.532-0.247-0.95-0.496-1.257-0.747c-0.308-0.253-0.51-0.542-0.604-0.867c-0.097-0.324-0.094-0.697,0.008-1.117
		c0.1-0.417,0.284-0.916,0.55-1.488l4.132-8.929c0.267-0.575,0.526-1.035,0.781-1.383c0.255-0.349,0.537-0.592,0.845-0.729
		c0.311-0.137,0.659-0.17,1.052-0.099c0.391,0.072,0.852,0.231,1.383,0.475l1.091,0.505c0.53,0.246,0.945,0.495,1.247,0.743
		c0.3,0.25,0.497,0.537,0.594,0.86c0.095,0.325,0.092,0.697-0.008,1.116c-0.102,0.42-0.284,0.916-0.55,1.489l-1.038,2.245
		l-2.222-1.028l0.892-1.929c0.188-0.406,0.279-0.704,0.274-0.894c-0.005-0.189-0.184-0.363-0.533-0.525l-0.336-0.155
		c-0.349-0.162-0.597-0.185-0.746-0.067c-0.148,0.12-0.315,0.379-0.504,0.787l-3.842,8.301c-0.188,0.405-0.28,0.701-0.273,0.892
		c0.005,0.188,0.183,0.365,0.533,0.526l0.336,0.154c0.349,0.162,0.597,0.185,0.746,0.066c0.147-0.119,0.315-0.38,0.501-0.786
		l1.36-2.934l-0.922-0.428L119.536,232.624z"/>
	<path fill="#E9C247" d="M122.865,243.977l4.24-12.025l2.091,0.738l-0.599,1.698c0.288-0.536,0.615-0.917,0.981-1.146
		c0.366-0.23,0.783-0.264,1.247-0.101l0.153,0.054l-0.839,2.375l-0.173-0.063c-0.538-0.189-0.97-0.157-1.294,0.096
		c-0.326,0.253-0.625,0.763-0.896,1.533l-2.689,7.625L122.865,243.977z"/>
	<path fill="#E9C247" d="M131.124,242.301c0.099-0.388,0.213-0.727,0.343-1.02c0.13-0.294,0.297-0.546,0.501-0.755
		c0.204-0.21,0.457-0.376,0.757-0.5c0.302-0.123,0.682-0.212,1.141-0.271c0.509-0.063,0.913-0.118,1.211-0.17
		c0.299-0.051,0.537-0.13,0.714-0.235c0.179-0.106,0.311-0.255,0.401-0.447c0.087-0.192,0.177-0.467,0.267-0.825l0.007-0.023
		c0.098-0.388,0.125-0.666,0.082-0.836c-0.045-0.171-0.224-0.296-0.538-0.375l-0.291-0.073c-0.314-0.08-0.529-0.055-0.65,0.073
		c-0.119,0.128-0.229,0.387-0.327,0.774l-0.306,1.209l-2.128-0.54l0.382-1.5c0.14-0.55,0.292-0.999,0.457-1.338
		c0.167-0.338,0.368-0.593,0.61-0.761c0.242-0.17,0.538-0.257,0.889-0.264c0.352-0.005,0.781,0.056,1.288,0.184l1.053,0.267
		c0.507,0.129,0.913,0.28,1.219,0.454c0.306,0.171,0.528,0.391,0.668,0.656c0.14,0.266,0.2,0.588,0.184,0.965
		c-0.016,0.376-0.093,0.842-0.234,1.394l-1.918,7.568c-0.091,0.358-0.171,0.705-0.239,1.035c-0.069,0.333-0.105,0.697-0.11,1.093
		l-2.172-0.55c-0.056-0.285-0.003-0.772,0.155-1.462c-0.225,0.453-0.514,0.775-0.865,0.971c-0.353,0.199-0.819,0.224-1.401,0.075
		l-0.469-0.118c-0.688-0.175-1.107-0.46-1.262-0.855c-0.152-0.398-0.128-1,0.077-1.805L131.124,242.301z M135.614,241.416
		c-0.22,0.054-0.462,0.097-0.724,0.125c-0.521,0.059-0.876,0.187-1.063,0.385c-0.184,0.2-0.337,0.538-0.459,1.016l-0.267,1.053
		c-0.094,0.374-0.121,0.646-0.075,0.814c0.044,0.171,0.215,0.294,0.514,0.368l0.27,0.069c0.297,0.076,0.53,0.023,0.694-0.156
		c0.165-0.18,0.296-0.465,0.395-0.854L135.614,241.416z"/>
	<path fill="#E9C247" d="M144.364,240.569c0,0.965-0.019,1.985-0.058,3.06c-0.039,1.078-0.098,2.1-0.175,3.067
		c0.201-0.95,0.434-1.946,0.702-2.991c0.267-1.041,0.538-2.025,0.812-2.95l1.172-3.915l2.104,0.304l-3.79,12.336l-3.018-0.438
		l-0.141-12.903l2.378,0.343L144.364,240.569z"/>
	<path fill="#E9C247" d="M153.132,250.182l-2.352-0.141l0.764-12.727l2.353,0.14L153.132,250.182z M151.751,233.902l2.35,0.141
		l-0.126,2.122l-2.353-0.142L151.751,233.902z"/>
	<path fill="#E9C247" d="M156.573,237.557l0.808-0.008l-0.022-2.771l2.356-0.019l0.023,2.771l1.132-0.009l0.018,1.964l-1.132,0.009
		l0.065,7.875c0.003,0.542,0.036,1.052,0.094,1.536c0.058,0.484,0.173,0.943,0.346,1.373l-2.472,0.021
		c-0.124-0.262-0.208-0.622-0.25-1.085c-0.043-0.459-0.067-0.961-0.071-1.501l-0.069-8.198l-0.808,0.008L156.573,237.557z"/>
	<path fill="#E9C247" d="M168.445,252.171c-0.342,0.381-0.888,0.608-1.639,0.682l-2.069,0.198l-0.171-1.77l1.034-0.1
		c0.428-0.042,0.625-0.263,0.585-0.66l-0.059-0.621l-3.243-12.427l2.39-0.232l0.987,3.967c0.122,0.468,0.244,0.966,0.364,1.497
		c0.122,0.531,0.235,1.062,0.34,1.591c0.105,0.532,0.202,1.05,0.291,1.55c0.085,0.502,0.164,0.958,0.236,1.37
		c-0.025-0.415-0.039-0.879-0.041-1.388c-0.004-0.51-0.004-1.036-0.003-1.578c0.003-0.542,0.009-1.085,0.018-1.628
		c0.009-0.542,0.029-1.053,0.06-1.537l0.232-4.083l2.116-0.204l-0.869,13.822C168.975,251.273,168.787,251.791,168.445,252.171z"/>
	<path fill="#E9C247" d="M181.758,237.95l3.344-0.909l1.58,5.819c0.165,0.61,0.262,1.13,0.291,1.56
		c0.029,0.432-0.031,0.797-0.18,1.102c-0.149,0.303-0.393,0.554-0.73,0.749c-0.337,0.194-0.789,0.37-1.354,0.525l-1.159,0.313
		c-0.565,0.154-1.046,0.231-1.444,0.235c-0.397,0.006-0.739-0.086-1.021-0.273c-0.282-0.185-0.52-0.474-0.712-0.859
		c-0.192-0.387-0.371-0.884-0.535-1.494l-2.579-9.497c-0.166-0.609-0.263-1.128-0.292-1.561c-0.03-0.43,0.03-0.798,0.179-1.102
		c0.148-0.303,0.396-0.554,0.742-0.751c0.345-0.198,0.8-0.373,1.365-0.527l1.16-0.314c0.564-0.153,1.043-0.229,1.431-0.233
		c0.392-0.001,0.728,0.09,1.01,0.276c0.282,0.188,0.519,0.473,0.712,0.86c0.193,0.386,0.372,0.884,0.537,1.495l0.648,2.384
		l-2.364,0.64l-0.557-2.05c-0.117-0.43-0.24-0.715-0.364-0.858c-0.126-0.142-0.375-0.161-0.748-0.061l-0.355,0.099
		c-0.373,0.101-0.577,0.243-0.615,0.429c-0.038,0.186,0.002,0.495,0.12,0.926l2.396,8.825c0.118,0.433,0.24,0.719,0.365,0.859
		c0.126,0.142,0.375,0.163,0.747,0.062l0.357-0.095c0.371-0.102,0.575-0.246,0.612-0.432c0.038-0.185-0.002-0.494-0.119-0.924
		l-0.848-3.122l-0.981,0.267L181.758,237.95z"/>
	<path fill="#E9C247" d="M190.026,240.651c-0.145-0.374-0.25-0.717-0.313-1.031c-0.064-0.313-0.076-0.616-0.031-0.904
		c0.044-0.291,0.153-0.572,0.329-0.846c0.173-0.275,0.432-0.569,0.772-0.883c0.377-0.346,0.672-0.626,0.888-0.841
		c0.213-0.214,0.362-0.417,0.445-0.607c0.083-0.188,0.105-0.388,0.065-0.595c-0.04-0.208-0.126-0.485-0.259-0.829l-0.009-0.022
		c-0.144-0.374-0.284-0.616-0.419-0.729c-0.135-0.111-0.353-0.111-0.653,0.006l-0.281,0.11c-0.301,0.117-0.464,0.263-0.486,0.437
		c-0.024,0.174,0.038,0.447,0.182,0.821l0.453,1.163l-2.046,0.794l-0.56-1.441c-0.208-0.532-0.341-0.984-0.403-1.356
		c-0.062-0.373-0.044-0.699,0.054-0.977c0.098-0.278,0.289-0.521,0.57-0.73c0.283-0.208,0.668-0.408,1.157-0.597l1.011-0.394
		c0.487-0.19,0.907-0.303,1.255-0.341c0.348-0.036,0.659,0.013,0.925,0.149c0.267,0.135,0.503,0.364,0.71,0.68
		c0.207,0.315,0.412,0.74,0.619,1.27l2.828,7.277c0.134,0.344,0.27,0.672,0.407,0.983c0.138,0.31,0.317,0.627,0.544,0.953
		l-2.088,0.811c-0.208-0.2-0.449-0.626-0.72-1.28c0.078,0.498,0.03,0.929-0.142,1.293c-0.172,0.364-0.538,0.655-1.097,0.874
		l-0.453,0.175c-0.66,0.257-1.167,0.268-1.524,0.035c-0.354-0.234-0.683-0.739-0.983-1.512L190.026,240.651z M193.168,237.324
		c-0.146,0.173-0.32,0.346-0.515,0.522c-0.393,0.351-0.608,0.66-0.642,0.93c-0.035,0.27,0.037,0.634,0.214,1.095l0.394,1.01
		c0.141,0.358,0.276,0.597,0.412,0.707c0.135,0.114,0.345,0.114,0.632,0.003l0.257-0.101c0.288-0.111,0.446-0.287,0.475-0.53
		c0.031-0.244-0.027-0.55-0.173-0.924L193.168,237.324z"/>
	<path fill="#E9C247" d="M201.945,240.364l-6.131-11.18l1.945-1.066l0.766,1.396c-0.178-0.515-0.21-0.976-0.099-1.38
		c0.111-0.403,0.444-0.758,0.999-1.061l0.364-0.2c0.487-0.269,0.894-0.372,1.224-0.314c0.33,0.055,0.647,0.281,0.951,0.675
		c-0.099-0.436-0.078-0.831,0.064-1.181s0.455-0.658,0.941-0.924l0.385-0.209c0.621-0.342,1.124-0.419,1.505-0.234
		c0.383,0.186,0.774,0.642,1.174,1.372l5.086,9.277l-2.065,1.133l-4.654-8.488c-0.185-0.335-0.349-0.554-0.491-0.653
		c-0.142-0.098-0.346-0.071-0.617,0.076l-0.162,0.089c-0.27,0.148-0.406,0.347-0.411,0.595c-0.005,0.247,0.089,0.548,0.282,0.898
		l4.554,8.305l-2.046,1.121l-4.653-8.486c-0.185-0.337-0.353-0.553-0.5-0.648c-0.147-0.093-0.357-0.068-0.627,0.082l-0.162,0.088
		c-0.271,0.147-0.404,0.344-0.401,0.589c0.002,0.244,0.1,0.542,0.292,0.893l4.552,8.304L201.945,240.364z"/>
	<path fill="#E9C247" d="M215.693,226.755l1.79-1.308l0.928,1.267c0.337,0.46,0.584,0.866,0.746,1.214
		c0.16,0.351,0.225,0.676,0.196,0.974c-0.03,0.299-0.154,0.585-0.374,0.858c-0.22,0.275-0.534,0.563-0.943,0.863l-0.915,0.669
		c-0.421,0.31-0.797,0.526-1.125,0.651c-0.328,0.125-0.635,0.155-0.922,0.087c-0.289-0.066-0.574-0.229-0.859-0.489
		c-0.285-0.258-0.596-0.617-0.932-1.077l-4.213-5.761c-0.337-0.46-0.583-0.862-0.74-1.208c-0.155-0.343-0.222-0.662-0.198-0.954
		c0.023-0.295,0.144-0.579,0.364-0.854c0.219-0.274,0.541-0.564,0.961-0.875l0.916-0.668c0.409-0.3,0.778-0.513,1.106-0.638
		c0.329-0.125,0.639-0.158,0.932-0.094c0.294,0.062,0.582,0.219,0.861,0.472c0.28,0.253,0.59,0.609,0.925,1.068l2.537,3.47
		l-3.244,2.372l1.513,2.069c0.237,0.323,0.435,0.522,0.595,0.595c0.16,0.075,0.375,0.013,0.649-0.188l0.242-0.177
		c0.261-0.19,0.379-0.375,0.357-0.548c-0.023-0.174-0.152-0.424-0.387-0.746L215.693,226.755z M212.33,225.207l1.454-1.063
		l-1.201-1.64c-0.236-0.324-0.435-0.521-0.592-0.597c-0.159-0.072-0.37-0.014-0.631,0.175l-0.242,0.179
		c-0.273,0.199-0.398,0.386-0.376,0.56c0.022,0.177,0.152,0.424,0.389,0.749L212.33,225.207z"/>
	<path fill="#E9C247" d="M223.896,220.956c-0.156-0.17-0.311-0.3-0.463-0.391c-0.153-0.089-0.332-0.141-0.533-0.155
		c-0.2-0.016-0.444-0.008-0.729,0.021s-0.642,0.084-1.071,0.16c-0.495,0.097-0.925,0.147-1.292,0.158
		c-0.364,0.01-0.701-0.029-1.007-0.113c-0.308-0.086-0.591-0.222-0.854-0.411c-0.264-0.186-0.535-0.434-0.814-0.741l-0.481-0.531
		c-0.382-0.423-0.67-0.797-0.861-1.121c-0.192-0.328-0.289-0.638-0.29-0.939c-0.001-0.3,0.092-0.598,0.281-0.893
		c0.189-0.296,0.477-0.621,0.865-0.973l0.822-0.745c0.376-0.341,0.721-0.591,1.034-0.75c0.312-0.161,0.618-0.223,0.917-0.193
		c0.297,0.031,0.603,0.154,0.915,0.372c0.311,0.218,0.658,0.536,1.041,0.959l1.04,1.146l-1.643,1.489l-0.839-0.923
		c-0.268-0.297-0.486-0.473-0.652-0.533c-0.166-0.056-0.369,0.025-0.608,0.242l-0.24,0.218c-0.239,0.217-0.34,0.412-0.297,0.582
		c0.04,0.172,0.195,0.406,0.465,0.702l0.185,0.204c0.156,0.172,0.31,0.303,0.464,0.393c0.154,0.089,0.331,0.139,0.532,0.156
		c0.202,0.014,0.445,0.009,0.729-0.021c0.286-0.031,0.641-0.084,1.07-0.162c0.496-0.094,0.927-0.148,1.293-0.157
		c0.365-0.01,0.701,0.029,1.007,0.112c0.306,0.086,0.593,0.225,0.855,0.411c0.263,0.188,0.534,0.436,0.813,0.743l0.621,0.685
		c0.382,0.422,0.67,0.802,0.86,1.139c0.19,0.333,0.288,0.653,0.289,0.953c0.002,0.302-0.092,0.598-0.28,0.894
		c-0.189,0.298-0.473,0.616-0.849,0.958l-0.821,0.743c-0.389,0.353-0.738,0.608-1.051,0.768c-0.314,0.159-0.619,0.224-0.918,0.193
		c-0.298-0.03-0.604-0.16-0.914-0.387c-0.309-0.229-0.656-0.555-1.039-0.975l-1.178-1.303l1.641-1.487l0.993,1.094
		c0.269,0.295,0.484,0.476,0.646,0.539c0.16,0.062,0.365-0.021,0.616-0.249l0.239-0.218c0.239-0.216,0.34-0.409,0.299-0.583
		c-0.04-0.171-0.195-0.404-0.464-0.699L223.896,220.956z"/>
	<path fill="#E9C247" d="M227.489,203.359c-0.313-0.25-0.561-0.394-0.748-0.433c-0.186-0.039-0.389,0.079-0.608,0.357l-0.188,0.234
		c-0.221,0.279-0.29,0.503-0.209,0.675s0.276,0.382,0.59,0.63l1.935,1.538l-1.422,1.791l-2.226-1.768
		c-0.457-0.363-0.816-0.698-1.076-1.003c-0.26-0.305-0.415-0.609-0.466-0.917c-0.051-0.307-0.004-0.628,0.144-0.963
		c0.147-0.334,0.39-0.711,0.726-1.134l0.704-0.885c0.335-0.423,0.648-0.741,0.934-0.955c0.289-0.214,0.588-0.331,0.898-0.349
		c0.311-0.02,0.645,0.059,1.006,0.238c0.359,0.178,0.768,0.448,1.227,0.813l0.651,0.517c0.469,0.373,0.855,0.728,1.157,1.068
		c0.303,0.337,0.556,0.711,0.761,1.118c0.206,0.411,0.379,0.878,0.522,1.405c0.143,0.526,0.294,1.159,0.455,1.896
		c0.119,0.544,0.232,1.02,0.345,1.423c0.111,0.404,0.246,0.766,0.404,1.088c0.157,0.322,0.355,0.618,0.595,0.886
		c0.237,0.269,0.546,0.55,0.918,0.848l0.053,0.043l2.746-3.455l1.772,1.409l-4.24,5.336l-1.934-1.539
		c-0.471-0.372-0.861-0.729-1.167-1.073c-0.308-0.343-0.566-0.72-0.771-1.128c-0.205-0.411-0.378-0.872-0.521-1.388
		c-0.142-0.515-0.293-1.143-0.453-1.879c-0.109-0.556-0.222-1.035-0.337-1.433c-0.118-0.398-0.255-0.757-0.412-1.081
		c-0.157-0.32-0.358-0.619-0.604-0.892s-0.554-0.559-0.929-0.855L227.489,203.359z"/>
	<path fill="#E9C247" d="M242.617,198.864c0.495,0.314,0.885,0.61,1.171,0.893c0.289,0.282,0.473,0.573,0.556,0.87
		c0.083,0.298,0.072,0.621-0.035,0.963s-0.305,0.741-0.592,1.196l-0.68,1.074c-0.289,0.456-0.565,0.808-0.833,1.059
		c-0.266,0.25-0.555,0.401-0.861,0.451c-0.306,0.053-0.646,0.008-1.018-0.137c-0.374-0.146-0.807-0.376-1.302-0.688l-8.745-5.532
		c-0.495-0.313-0.888-0.608-1.178-0.882c-0.291-0.275-0.477-0.562-0.562-0.861c-0.084-0.3-0.071-0.624,0.04-0.973
		c0.111-0.349,0.311-0.749,0.599-1.206l0.681-1.074c0.286-0.456,0.563-0.804,0.827-1.047c0.263-0.244,0.547-0.391,0.853-0.444
		c0.307-0.051,0.649-0.009,1.026,0.13c0.376,0.138,0.813,0.365,1.307,0.678L242.617,198.864z M240.007,202.297
		c0.339,0.214,0.603,0.332,0.79,0.351c0.19,0.02,0.377-0.121,0.567-0.42l0.162-0.253c0.19-0.299,0.234-0.53,0.136-0.692
		c-0.097-0.162-0.315-0.351-0.654-0.565l-8.12-5.138c-0.34-0.213-0.603-0.331-0.79-0.349c-0.189-0.02-0.377,0.12-0.568,0.419
		l-0.16,0.255c-0.189,0.297-0.235,0.529-0.138,0.69c0.098,0.163,0.316,0.351,0.655,0.565L240.007,202.297z"/>
	<path fill="#E9C247" d="M247.161,196.593l-13.278-6.857c0.07-0.137,0.107-0.292,0.11-0.465c0.002-0.172-0.023-0.342-0.076-0.508
		c-0.054-0.164-0.124-0.313-0.212-0.447c-0.087-0.131-0.193-0.228-0.316-0.293l0.519-1.006l14.367,7.422L247.161,196.593z"/>
	<path fill="#E9C247" d="M249.455,186.583c0.134-0.325,0.139-0.559,0.015-0.703c-0.123-0.144-0.372-0.291-0.741-0.443l-3.439-1.413
		c0.352,0.277,0.581,0.601,0.688,0.969c0.107,0.368,0.051,0.815-0.166,1.343l-0.211,0.512c-0.275,0.67-0.622,1.047-1.039,1.134
		c-0.419,0.086-1.034-0.038-1.846-0.371l-4.849-1.994c-0.541-0.222-0.979-0.444-1.313-0.665c-0.333-0.221-0.568-0.47-0.704-0.751
		c-0.133-0.28-0.176-0.602-0.127-0.963c0.049-0.364,0.175-0.793,0.38-1.292l0.484-1.174c0.204-0.498,0.417-0.895,0.637-1.188
		c0.221-0.291,0.478-0.49,0.771-0.593c0.292-0.105,0.634-0.119,1.027-0.042c0.393,0.079,0.859,0.229,1.4,0.451l9.571,3.936
		c0.542,0.222,0.979,0.446,1.309,0.673c0.331,0.228,0.564,0.482,0.699,0.761c0.133,0.281,0.177,0.599,0.131,0.956
		c-0.047,0.354-0.171,0.782-0.375,1.279l-0.431,1.047c-0.205,0.5-0.418,0.894-0.637,1.187c-0.222,0.292-0.477,0.492-0.77,0.594
		c-0.293,0.105-0.636,0.119-1.027,0.04c-0.393-0.077-0.86-0.227-1.401-0.449l-1.774-0.73l0.87-2.114l1.431,0.587
		c0.371,0.153,0.65,0.222,0.84,0.208c0.188-0.015,0.35-0.186,0.485-0.513L249.455,186.583z M242.781,185.016
		c0.357,0.146,0.624,0.217,0.799,0.216c0.175-0.003,0.329-0.162,0.457-0.474l0.114-0.279c0.117-0.285,0.097-0.53-0.06-0.737
		c-0.157-0.205-0.427-0.387-0.813-0.546l-3.438-1.412c-0.371-0.153-0.65-0.222-0.84-0.208c-0.189,0.013-0.35,0.184-0.485,0.511
		l-0.114,0.279c-0.134,0.327-0.141,0.563-0.015,0.705c0.125,0.144,0.372,0.291,0.741,0.441L242.781,185.016z"/>
</g>
<path fill="#E9C247" d="M155.62,229.395c-42.708,0-77.452-34.744-77.452-77.452c0-42.708,34.744-77.453,77.452-77.453
	c42.708,0,77.452,34.746,77.452,77.453C233.072,194.65,198.328,229.395,155.62,229.395z M155.62,78.98
	c-40.231,0-72.961,32.731-72.961,72.962c0,40.231,32.729,72.96,72.961,72.96c40.231,0,72.96-32.729,72.96-72.96
	C228.581,111.711,195.851,78.98,155.62,78.98z"/>
<path fill="#E11E30" d="M225.185,152.102c0,38.352-31.093,69.447-69.448,69.447s-69.449-31.095-69.449-69.447
	c0-38.358,31.094-69.449,69.449-69.449S225.185,113.744,225.185,152.102z"/>
<g>
	<path fill="#E9C247" d="M97.569,94.615c0,0,11.039,0.688,15.64,3.451l2.53-1.612c0,0,8.97,3.221,14.029,7.591
		c0,0,5.059,1.379,11.73,0.69c0,0,13.341-4.599,34.5,0.69l2.53,0.229c0,0,11.959-6.898,16.1-7.357l3.908,0.458
		c0,0,12.192-4.139,18.632-2.758c0,0-1.38,8.967-0.229,10.349c0,0-5.063,6.899-5.291,9.43l-2.762,1.15l-0.917,3.681
		c0,0,8.509,22.541,11.04,34.04l1.148,4.599l-4.6-1.15c0,0,4.6,32.431-32.429,42.78c0,0-3.68,2.07-5.521,6.899
		c0,0-3.91,11.73-21.16,11.27c0,0-12.649,3.45-20.7-9.199c0,0-2.99-6.9-8.049-9.2c0,0-29.9-8.05-32.201-40.25l-4.601,3.448
		c0,0,3.221-16.79,7.589-25.989c0,0,3.911-14.49,3.911-17.709c0,0-1.38-7.362-5.289-11.271l-2.531-2.068l-1.149-11.272
		L97.569,94.615z"/>
	<g>
		<path d="M165.003,204.685c-1.378,0-3.357-0.211-5.016-1.941c-0.458-0.003-2.312-0.017-2.782-0.017
			c-1.181,0-2.567,0.021-3.92,0.173c-0.488,0.055-1.124,0.372-1.798,0.706c-0.456,0.229-0.915,0.454-1.379,0.64
			c-0.546,0.219-1.215,0.487-2.007,0.487c-1.246-0.036-2.391-0.096-3.536-0.151c-0.401-0.022-0.806-0.041-1.211-0.062
			c4.178,0.97,8.522,1.499,12.991,1.499c4.469,0,8.818-0.529,12.997-1.501l0.01-0.102c-0.78,0.05-1.548,0.102-2.315,0.16
			l-0.22,0.017C166.23,204.637,165.627,204.685,165.003,204.685z"/>
		<path d="M101.71,132.724c0.838-1.995,1.706-4.059,2.41-6.104c0.504-1.473,0.883-2.91,1.147-4.304
			c-2.257,4.376-3.971,9.073-5.046,14.008l0.373-0.919C100.958,134.508,101.333,133.615,101.71,132.724z"/>
		<path d="M181.065,200.42c0.796-0.381,1.578-0.781,2.354-1.196l-1.812,0.589c-0.107,0.131-0.214,0.261-0.331,0.385
			C181.208,200.273,181.137,200.347,181.065,200.42z"/>
		<path d="M114.128,180.345l-0.866-0.74c-3.188-2.71-4.613-5.504-6.408-12.092l-1.915,2.778c0.341,1.821,0.798,3.643,1.433,5.466
			l1.677-0.757l6.707,8.543l0.57-1.68C114.92,181.364,114.518,180.858,114.128,180.345z"/>
		<path d="M199.353,179.795l-1.409,1.328c-0.222,0.282-0.437,0.57-0.666,0.849l0.547,1.603c2.334-2.164,4.298-4.859,6.067-8.297
			l2.158,0.629c0.619-1.738,1.115-3.52,1.481-5.362l-1.729-2.734C204.577,172.133,202.963,176.396,199.353,179.795z"/>
		<g>
			<path d="M104.584,106.764c-0.05,0.336-0.091,0.672-0.135,1.012l0.514-0.857C104.833,106.867,104.715,106.813,104.584,106.764z"/>
			<path d="M197.503,102.066c-0.534-0.046-1.182-0.571-1.549-0.398c-2.955,1.4-5.95,2.758-8.753,4.429
				c-4.657,2.783-9.464,4.001-14.816,2.492c-6.792-1.914-13.672-2.757-20.739-1.753c-5.045,0.719-10.114,1.333-15.196,1.744
				c-3.96,0.321-7.738-0.393-11.221-2.632c-2.542-1.633-5.333-2.902-8.089-4.171c-0.641-0.296-1.585,0.07-2.391,0.131
				c-0.014,0.213-0.029,0.428-0.044,0.643c-5.375-2.45-10.796-4.686-16.314-4.053c0.031,1.387,0.09,2.376,0.065,3.364
				c-0.035,1.497-0.128,2.992-0.216,4.903c0.911-0.626,1.2-0.823,1.447-0.994c0.312,1.077,0.617,2.117,0.917,3.143
				c0.064-0.224,0.126-0.45,0.224-0.669l1.344-3.081l0.516,0.616c0.351-1.103,1.141-1.531,2.622-0.965
				c1.417,0.542,2.772,1.163,4.075,1.862c1.54,0.57,3.278,1.22,4.48,2.601c0.2,0.228,0.378,0.465,0.542,0.712l0.87,0.501
				c2.666,1.542,4.415,3.894,4.923,6.626c0.058,0.311,0.096,0.625,0.121,0.936c0.922,1.492,1.858,3.038,2.886,4.652
				c0.203-2.286,0.378-4.27,0.574-6.471c1.122,0.581,2.042,1.055,2.965,1.533c0.161-0.147,0.322-0.296,0.481-0.445
				c-0.823-1.352-1.647-2.704-2.713-4.457c2.201,0.444,4.185,0.899,6.191,1.215c0.93,0.15,2.005,0.299,2.838-0.019
				c4.039-1.546,7.967-3.393,12.042-4.836c2.236-0.792,4.682-0.996,7.031-1.464c0,0.112,0,0.228,0,0.341
				c-3.938,2.227-7.877,4.453-12.31,6.959c0.117-1.407,0.164-1.976,0.233-2.78c-5.775,1.572-10.249,4.426-12.678,9.959
				c4.531-3.909,9.831-5.365,15.836-4.912c-0.151-0.866-0.252-1.457-0.415-2.393c2.417-0.932,4.787-1.915,7.207-2.754
				c1.359-0.473,2.678-0.276,3.397,1.199c0.739,1.506-0.096,2.606-1.187,3.444c-2.975,2.282-6.386,3.413-10.127,3.483
				c-0.495,0.008-1.001-0.303-1.488-0.5c-0.558-0.222-1.157-0.769-1.641-0.676c-2.187,0.419-4.427,0.785-6.48,1.597
				c-4.414,1.75-7.323,4.94-8.556,9.903l0.004,0.114c1.218-1.441,2.148-2.739,3.282-3.817c3.04-2.889,6.277-5.081,10.898-4.877
				c0.06,0.002,0.119,0.001,0.179,0.003c0.392-0.231,0.781-0.453,1.166-0.672l1.519-0.863l1.625,1.476
				c3.86-0.254,7.671-1.055,11.362-2.426c0.095-0.037,0.248,0.083,0.458,0.16c0.088,0.549,0.184,1.134,0.209,1.288
				c-0.966,0.677-1.808,1.035-2.31,1.662c-1.427,1.788-3.278,2.478-5.47,2.66c-1.618,0.132-3.228,0.315-4.839,0.5l-1.297,1.496
				c1.75-0.213,3.5-0.424,5.257-0.611c2.846-0.304,5.698-0.563,8.814-0.866c0.085,0.162,0.288,0.544,0.532,1.003l0.677-0.718
				l0.368,0.514c0.303-0.486,0.544-0.875,0.672-1.085c2.445,0.432,4.452,0.859,6.479,1.128c2.533,0.334,5.074,0.599,7.617,0.848
				l-1.44-1.558c-1.396-0.258-2.791-0.483-4.196-0.55c-2.699-0.129-4.887-0.868-6.553-3.069c-0.426-0.563-1.183-0.873-1.953-1.415
				c0.114-0.373,0.285-0.925,0.388-1.253c2.184,0.568,4.105,1.307,6.083,1.525c0.66,0.073,1.323,0.127,1.991,0.174l-1.318-1.422
				l6.514,1.46c0.167,0.037,0.316,0.092,0.479,0.134c0.377,0,0.753,0.002,1.13,0c5.344-0.043,9.674,1.852,12.848,6.234
				c0.607,0.835,1.298,1.632,2.151,2.659l0.031-0.978l0.244,0.446c-1.502-5.423-5.811-9.142-11.357-10.045
				c-1.305-0.21-2.787-0.7-3.928-0.31c-4.951,1.701-9.109-0.052-12.991-2.759c-0.754-0.527-1.291-2.393-0.934-3.2
				c0.355-0.804,2.101-1.641,2.991-1.43c2.189,0.52,4.299,1.513,6.302,2.581c0.652,0.349,0.87,1.516,1.414,2.545
				c5.692-1.296,10.445,2.125,15.443,4.69c0.229-0.295,0.46-0.591,0.692-0.886c-2.467-2.566-4.937-5.13-6.482-6.739
				c1.969-0.295,5.391-0.812,8.814-1.329c-1.313,1.527-2.412,2.728-2.223,4.82c1.235-0.642,2.202-1.148,3.512-1.83
				c-0.557,2.628-0.768,4.738,0.901,6.746c0.645-1.91,1.411-3.678,2.299-5.318c0.599-2.857,2.109-5.238,4.598-7.247l3.793-3.06
				l-0.047,0.535c0.877-0.498,1.883-0.897,2.993-1.218c1.781-0.875,3.709-1.61,5.823-2.177c0.047,0.339,0.093,0.668,0.139,1
				l2.333-0.414l-2.088,2.153c0.028,0.203,0.056,0.405,0.084,0.604l0.658-0.364c0.514,0.646,0.866,1.29,1.084,1.958
				c0.135-0.464,0.264-0.925,0.401-1.387c0.188-0.632,0.732-1.751,0.875-1.716c1.55,0.404,1.137-0.819,1.147-1.419
				c0.019-1.105-0.282-2.213-0.255-3.32c0.02-0.849,0.338-1.693,0.571-2.778c-1.478,0-3.343-0.344-5.025,0.071
				c-3.51,0.862-6.916,2.136-10.377,3.207C198.646,102.061,198.05,102.115,197.503,102.066z M172.246,114.5
				c-4.92-1.194-8.297-4.946-12.723-6.617c5.985,0.492,11.591,2.072,16.986,5.725c-1.723-0.488-3.011-0.853-4.488-1.271
				C172.1,113.101,172.153,113.616,172.246,114.5z"/>
			<path d="M169.986,213.741c2.692-3.498,4.542-7.104,4.925-10.382c1.993-1.859,3.513-3.119,4.83-4.561
				c0.883-0.968,1.408-2.257,2.224-3.297c1.077-1.369,2.455-2.227,4.541-1.906c-0.515,0.958-0.958,1.782-1.585,2.952
				c4.145-1.353,6.762-4.336,9.987-7.208c-0.218,0.984-0.317,1.383-0.389,1.786c-0.082,0.444-0.135,0.898-0.275,1.866
				c3.76-3.11,7.236-6.129,9.38-9.974l-0.644-0.499c1.037-1.78,1.917-3.597,2.652-5.465c0.039-0.274,0.083-0.545,0.109-0.825
				c-2.185,4.248-4.958,7.986-8.919,10.85c-0.357-1.052-0.656-1.928-1.115-3.275c-2.288,2.575-4.262,4.792-6.231,7.01
				c-0.153-0.133-0.303-0.268-0.455-0.402c-0.038-0.533-0.071-1.061-0.108-1.594c-1.902,1.164-3.671,2.247-5.44,3.33
				c-0.007-0.006-0.013-0.016-0.02-0.023c-1.303,1.628-3.04,2.456-5.193,2.456c-0.917,0-1.838-0.16-2.75-0.386
				c-0.61,0.12-1.227,0.261-1.826,0.335c0.022,0.124,0.045,0.245,0.069,0.367c1.238,0.327,2.475,0.652,3.936,1.037
				c-1.59,0.597-2.842,1.067-4.093,1.538c0.046,0.136,0.093,0.275,0.14,0.414c0.86-0.104,1.72-0.206,2.815-0.334
				c-4.173,4.227-16.722,1.5-17.989-3.606c1.441-1.603,3.258-2.464,5.46-2.623c0.548-0.042,1.313-0.23,1.571-0.619
				c1.072-1.63,2.186-3.285,2.898-5.084c0.533-1.34,0.475-2.915,0.677-4.386c-0.188-0.02-0.377-0.042-0.569-0.064
				c-3.969,10.519-20.431,9.598-25.144-0.263c0,1.275-0.217,2.091,0.04,2.709c0.851,2.038,1.842,4.022,2.845,5.994
				c0.596,1.174,1.454,1.808,2.955,1.863c1.993,0.072,3.748,0.936,4.717,2.844c-3.664,5.271-15.392,7.486-17.993,3.318
				c1.036,0.111,1.969,0.208,2.902,0.308c0.037-0.184,0.073-0.368,0.108-0.55c-1.39-0.436-2.781-0.871-4.696-1.469
				c1.909-0.376,3.345-0.658,4.781-0.941c0-0.2-0.002-0.396-0.002-0.596c-0.532-0.016-1.064-0.028-1.597-0.037l-5.872,0.455
				l-2.306-2.847c-0.112,0.075-0.221,0.149-0.333,0.221c-1.758-1.109-3.518-2.222-5.447-3.439c0,0.661,0,1.194,0,1.727
				c-0.152,0.102-0.306,0.204-0.461,0.308c-2.034-2.212-4.066-4.424-6.279-6.83c-0.455,1.34-0.753,2.222-1.051,3.1
				c-0.219,0.109-0.435,0.216-0.651,0.324c-2.831-3.604-5.653-7.201-8.389-10.686c0.721,1.912,1.605,3.82,2.716,5.713l-0.653,0.455
				c2.166,3.87,5.48,7.037,9.549,9.851c-0.264-1.209-0.452-2.075-0.643-2.94c3.337,2.205,5.395,5.863,9.727,6.434
				c-0.479-0.939-0.896-1.756-1.516-2.966c3.053,1.229,5.906,1.873,6.865,5.124c0.171,0.582,0.659,1.065,0.976,1.607
				c1.011,1.706,2.377,2.445,4.473,2.385c3.275-0.09,6.561,0.213,9.842,0.311c0.424,0.011,0.867-0.175,1.275-0.337
				c1.242-0.499,2.44-1.339,3.716-1.481c2.415-0.272,4.872-0.163,7.311-0.172c0.303-0.003,0.707,0.155,0.896,0.382
				c1.534,1.847,3.577,1.614,5.619,1.457c1.563-0.122,3.129-0.207,4.784-0.314c-0.226,2.294-0.416,4.233-0.526,5.347
				c-2.23,1.743-3.919,3.063-5.457,4.266c0,0.074,0-0.312,0-0.445c-6.51,0-12.9,0-19.494,0c-0.578-0.556-1.298-1.793-2.304-2.101
				c-2.795-0.854-2.688-2.967-2.744-5.133c-0.012-0.464-0.118-0.926-0.175-1.366c-1.14,0-2.147,0-3.306,0
				c0.674,4.163,2.035,7.79,5.003,10.824c0.147-0.473,0.249-0.792,0.353-1.123c1.764,1.862,3.566,3.688,6.344,3.606
				c4.858-0.146,9.713-0.404,14.567-0.615c0.037,0.215,0.076,0.43,0.114,0.645c0.284-0.539,0.565-1.075,0.93-1.768
				c0.073,0.666,0.129,1.182,0.216,2.004c1.603-1.409,3.006-2.646,4.407-3.879C169.688,212.775,169.8,213.136,169.986,213.741z"/>
			<path d="M169.772,159.205c0.197,0.33,0.406,0.644,0.624,0.95l5.855,3.73c0.261,0.166,0.522,0.339,0.782,0.511
				c0.148,0.018,0.293,0.05,0.446,0.062c-1.81-3.06-5.762-4.581-5.903-9.116c2.4,0,4.928,0.609,6.909-0.17
				c2.017-0.792,3.497-2.953,5.472-4.75c-0.393,3.661-2.917,5.582-4.665,7.988c5.518-2.327,7.971-7.506,11.229-12.625
				c0.385,6.322-1.016,11.52-4.04,16.328c6.267-4.944,7.269-12.345,9.175-19.686c0.834,0.899,1.536,1.547,2.103,2.296
				c0.628,0.835,1.124,1.771,1.693,2.649c0.477,0.738,0.979,1.46,1.47,2.188c-0.302-2.204-0.748-4.333-1.323-6.393
				c-0.3-0.604-0.604-1.214-0.93-1.843l-1.996-3.848l0.985,0.199c-2.139-4.944-5.204-9.409-9.243-13.393
				c2.625,5.287,4.454,10.709,3.393,16.923c-0.814-1.489-1.512-2.765-2.21-4.04c-0.173,5.391-3.518,8.099-10.313,8.184
				c1.25-3.504,1.427-6.92,0.143-10.249l-0.718,2.745c-1.166,4.455-3.485,8.236-7.3,11.9l-2.23,2.144l0.004,0.084l-0.038-0.055
				l-0.715,0.687c0.269,1.201,0.505,2.404,0.737,3.598c0.146,0.75,0.294,1.505,0.451,2.267L169.772,159.205z M181.264,148.443
				c-1.216,3.76-3.408,4.905-7.457,4.539c-0.098-0.183-0.196-0.366-0.294-0.549C176.098,151.104,178.681,149.774,181.264,148.443z"
				/>
			<path d="M178.356,132.897l-0.041-0.033c0.023,0.241,0.027,0.469,0.043,0.702l0.267-0.191
				C178.538,133.214,178.45,133.055,178.356,132.897z"/>
			<path d="M143.143,158.709c0.176-1.98,0.437-4.099,0.901-6.273l-2.743-2.355c-3.462-2.977-5.719-6.808-7.097-12.061l-0.89-3.395
				c-0.487,1.42-0.826,2.831-0.909,4.252c-0.125,2.164,0.253,4.356,0.45,7.018c-2.375-0.847-4.66-1.458-6.762-2.463
				c-2.269-1.086-3.325-3.132-3.446-5.761c-0.603,1.215-1.206,2.431-2.046,4.13c-0.664-6.359,0.598-11.788,3.358-16.984
				c-3.483,3.104-6.714,7.737-8.947,12.331l0.801-0.232l-1.98,4.166c-0.483,1.019-0.952,2.04-1.401,3.066
				c-0.455,1.924-0.618,3.669-0.386,5.055c1.459-2.23,2.304-4.91,4.893-6.447c1.825,7.271,3.198,14.375,9.056,19.433
				c-2.764-4.932-4.737-10.006-3.554-15.914c6.827,10.218,7.8,11.283,10.595,11.606c-3.763-4.101-4.218-4.897-4.114-7.445
				c0.823,0.876,1.599,1.577,2.224,2.39c1.518,1.984,3.332,2.999,5.955,2.632c1.287-0.181,2.658,0.24,3.992,0.387
				c0.135,0.266,0.273,0.535,0.408,0.802c-2.005,2.519-4.019,5.04-6.123,7.685c0.937-0.534,1.887-1.068,2.81-1.593
				c1.117-0.636,2.223-1.264,3.311-1.878l0.12,0.133c0.559-0.659,1.069-1.397,1.518-2.23L143.143,158.709z M131.075,149.142
				c3.241-0.187,5.287,2.026,7.981,3.354C135.739,153.758,133.013,152.563,131.075,149.142z"/>
			<path d="M134.022,132.75c-0.037,0.092-0.07,0.181-0.106,0.273l0.121,0.094c0.009-0.131,0.011-0.259,0.023-0.394L134.022,132.75z"
				/>
			<path d="M134.187,167.391l0.439,1.16l-1.735,0.822c-0.306,0.145-0.61,0.317-0.912,0.487c-0.866,0.484-1.844,1.034-3.018,1.222
				c-0.479,0.077-0.968,0.118-1.452,0.118c-3.262,0-5.834-1.752-7.488-3.07c-1.39-1.11-2.695-2.335-3.96-3.547
				c-0.348-0.215-0.692-0.43-1.043-0.645l-0.42,0.535l-0.063-0.037c-0.457,1.026-1.032,2.316-1.613,3.625
				c-0.271,0.003-0.541,0.006-0.81,0.008c-0.865-4.569-1.727-9.134-2.625-13.905c-0.76,1.049-1.499,2.063-2.464,3.396
				c0.028-6.358,2.241-11.702,4.935-17.369c-1.445,0.416-2.39,0.689-3.608,1.04c1.64-4.747,4.237-8.792,6.793-12.804
				c-0.434,0.542-0.736,0.917-0.736,0.917l-1.018-0.472c-2.316,3.136-4.657,6.817-6.413,10.053l-2.39,5.597l2.193-1.249
				l-0.312,1.543c0.146-0.073,0.282-0.142,0.441-0.222c-0.444,1.356-0.85,2.709-1.209,4.059c-0.802,4.121-1.435,8.501-1.481,13.013
				c0.101,1.641,0.317,3.309,0.686,5.02c1.126-1.633,1.901-2.758,2.833-4.109c2.47,10.058,3.682,12.731,6.875,15.449
				c0.588-1.823,1.184-3.675,1.82-5.65l-0.287-0.987l0.486,0.368c0.244-0.758,0.493-1.538,0.755-2.346
				c2.089,1.495,3.622,2.586,5.152,3.686c2.528,1.815,5.116,2.064,7.791,0.309c0.364-0.239,0.737-0.458,1.111-0.683
				c0.26-0.262,0.521-0.532,0.777-0.792c0.638-0.645,1.273-1.29,1.907-1.935c0.35-0.356,0.711-0.588,1.06-0.813
				c0.131-0.084,0.274-0.177,0.433-0.287l0.489,0.445c2.472-2.038,4.676-4.264,6.417-6.668
				C139.829,164.193,137.033,165.793,134.187,167.391z"/>
			<path d="M197.928,178.281c4.408-4.15,5.515-9.739,7.097-15.583c0.912,1.439,1.578,2.492,2.499,3.947
				c0.422-1.576,0.678-3.12,0.813-4.639c-0.001-4.287-0.547-8.913-1.629-13.994c-0.292-1.106-0.6-2.211-0.917-3.322
				c0.08,0.037,0.146,0.07,0.223,0.104l-0.454-2.071l2.204,1.374l-1.298-3.083c-0.956-1.949-1.924-3.893-2.959-5.8
				c-0.988-1.816-2.13-3.553-3.259-5.294l-1.164,0.995c1.969,3.189,3.769,6.483,4.934,10.152c-1.185-0.236-2.131-0.426-3.502-0.7
				c2.852,5.492,5.063,10.653,4.869,16.821c-0.976-1.285-1.707-2.245-2.634-3.466c-0.257,2.787-0.288,5.159-0.741,7.451
				c-0.454,2.298-1.331,4.515-2.182,7.29c-0.305-0.657-0.576-1.246-0.833-1.803l-0.294,0.666l-1.604-3.128
				c-0.122,0.106-0.244,0.214-0.365,0.318c-1.796,1.57-3.654,3.196-5.674,4.607c-1.938,1.356-3.94,2.043-5.948,2.043
				c-1.815,0-3.573-0.566-5.225-1.679c-0.084-0.058-0.178-0.098-0.267-0.143l-0.288-0.148l0.282-0.849
				c-0.487-0.299-0.973-0.584-1.449-0.823c-1.055-0.534-2.021-1.245-3.028-1.883c-1.551-0.984-3.099-1.976-4.649-2.962
				c-0.134,0.173-0.269,0.35-0.402,0.525c1.688,1.493,3.342,3.033,5.013,4.549l0.308-0.641l3.631,3.478
				c0.98,0.941,1.958,1.88,2.934,2.824c3.217,2.049,5.558,1.556,9.014-1.005c1.276-0.943,2.615-1.794,4.307-2.947
				c0.211,0.701,0.412,1.38,0.614,2.048l0.647-0.521l-0.414,1.305C196.743,174.321,197.325,176.258,197.928,178.281z"/>
			<path d="M212.716,152.623c0.881,1.048,1.318,1.674,1.857,2.189c0.544,0.514,1.192,0.92,1.792,1.375
				c-1.865-5.73-3.767-11.362-6.39-16.625l-0.73,0.223l-2.507-3.867c-0.153-0.234-0.304-0.469-0.456-0.705
				c1.871,4.445,3.74,8.891,5.611,13.334c-0.18,0.079-0.359,0.161-0.538,0.24c-0.732-0.457-1.466-0.913-2.71-1.692
				c2.841,13.035,2.74,25.122-3.868,36.47C213.402,175.076,212.346,163.988,212.716,152.623z"/>
			<path d="M100.028,163.171c0.238,5.48,1.087,10.871,3.929,15.683c0.989,1.674,2.447,3.07,3.691,4.594
				c-6.727-11.45-6.362-23.507-3.814-36.11c-1.112,0.633-1.906,1.085-2.7,1.538c-0.176-0.114-0.352-0.225-0.528-0.337
				c1.952-4.573,3.906-9.146,5.86-13.718c-0.097,0.131-0.196,0.269-0.293,0.398c-0.579,0.783-1.157,1.569-1.732,2.359l-1.188,1.63
				l-0.276-0.188c-2.884,5.473-5.071,11.281-6.782,17.352c1.271-1.112,2.545-2.224,3.807-3.326
				C100.002,156.622,99.886,159.902,100.028,163.171z"/>
			<path d="M162.78,139.627c1.236,1.581,2.368,3.246,3.89,5.344c-0.475-7.767-6.788-10.723-10.255-15.369l-0.229-0.116l-0.021,0.009
				c-2.43,2.57-4.869,5.08-7.228,7.665c-1.794,1.97-3.062,4.184-2.627,7.365c1.275-1.851,2.264-3.448,3.411-4.924
				c1.981-2.556,4.203-3.837,6.43-3.864l0.628-0.385l0.514,0.486C159.193,136.186,161.072,137.439,162.78,139.627z"/>
			<path d="M114.073,161.777c0.326-0.414,0.655-0.83,0.883-1.119c2.177,2.021,4.151,4.081,6.364,5.845
				c2.087,1.667,4.5,2.978,7.312,2.524c1.174-0.188,2.247-1.003,3.369-1.533c-0.08-0.208-0.159-0.417-0.237-0.624
				c-8.574,0.651-12.555-5.369-16.415-11.557c-0.549,0.575-0.885,0.926-1.564,1.64c-0.213-2.201-0.381-3.962-0.55-5.723
				C111.75,155.098,112.368,160.805,114.073,161.777z"/>
			<path d="M106.809,107.886c-0.119,0.197-0.236,0.393-0.354,0.59c6.853,4.972,7.825,11.819,6.331,19.565
				c1.315-1.639,2.53-3.158,3.75-4.67c2.994-3.711,2.034-8.574-2.301-11.081c0.135,1.55,0.264,3.018,0.367,4.192
				c-0.67-1.839-0.961-4.296-2.305-5.839C111.053,109.215,108.684,108.766,106.809,107.886z"/>
			<path d="M194.31,119.075c-0.102,1.01,0.306,2.514,1.038,3.086c1.954,1.52,2.931,3.465,3.508,5.74
				c0.093,0.075,0.18,0.16,0.26,0.25c0.257-0.22,0.747-0.451,0.74-0.66c-0.103-2.459-0.387-4.916-0.409-7.374
				c-0.035-3.685,1.463-6.777,4.055-9.36c0.8-0.796,1.57-1.614,2.61-2.686c-4.678,0.835-7.451,2.978-8.03,7.118
				c0.086-1.005,0.177-2.07,0.287-3.343C195.786,113.929,194.597,116.325,194.31,119.075z"/>
			<path d="M198.756,156.742c-0.764-0.613-1.136-0.913-1.034-0.83c-2.198,2.296-4.211,4.437-6.269,6.534
				c-0.475,0.483-1.188,0.739-1.636,1.239c-2.494,2.797-5.455,4.265-9.504,3.677c0.247,0.131,0.504,0.244,0.736,0.397
				c3.023,2.042,6.091,1.563,8.817-0.344c2.777-1.94,5.25-4.315,7.873-6.516c0.156,0.304,0.418,0.811,0.817,1.59
				c2.166-4.924,2.319-9.117,0.765-11.038C199.149,153.051,198.971,154.727,198.756,156.742z"/>
			<path d="M103.606,115.215c0.313-0.892,0.502-1.432,0.722-2.058c2.442,2.01,3.637,4.502,3.31,7.456
				c-0.254,2.261-0.813,4.528-1.554,6.683c-1.035,3.016-2.362,5.931-3.563,8.89c0.08,0.055,0.16,0.109,0.241,0.165
				c2.009-2.757,4.081-5.477,5.999-8.297c0.765-1.126,1.47-2.429,1.726-3.744c0.996-5.181-1.377-9.002-5.188-12.226
				c-0.995-0.841-1.722-2.001-2.565-3.009C101.972,110.818,102.713,112.822,103.606,115.215z"/>
			<path d="M127.63,179.718c-1.075,1.19-2.068,1.324-3.248,0.503c-1.537-1.072-2.996-2.25-4.489-3.382
				c1.285,4.424,4.387,7.391,7.596,10.09c0.517-0.904,1.016-1.784,1.524-2.67l-1.239-4.695
				C127.727,179.616,127.68,179.666,127.63,179.718z"/>
			<path d="M136.809,170.595c-0.531,0.372-0.917,0.563-1.203,0.853c-2.562,2.618-5.17,5.198-7.637,7.905l2.738,1.936
				C132.758,177.698,134.762,174.186,136.809,170.595z"/>
			<path d="M186.502,185.564c2.805-2.022,4.811-4.925,5.985-8.633c-0.58,0.468-1.174,0.917-1.736,1.405
				c-3.931,3.396-4.263,3.371-7.479-0.545c-0.442-0.541-0.883-1.087-1.381-1.574c-1.938-1.884-3.899-3.747-5.851-5.616
				c-0.042,0.09-0.086,0.179-0.129,0.272c2.936,5.13,5.872,10.262,8.854,15.472L186.502,185.564z"/>
			<path d="M207.126,111.757c-3.317,3.386-5.148,7.436-5.047,12.248c0.01,0.466,0.086,1.001,0.33,1.38
				c2.554,4,5.146,7.971,7.73,11.955c0.097-0.03,0.197-0.061,0.295-0.089c-0.326-0.9-0.638-1.804-0.982-2.695
				c-1.38-3.579-3.006-7.088-4.092-10.753c-1.136-3.824-0.632-7.487,2.814-10.297c0.29,0.563,0.55,1.067,0.868,1.683
				c1.28-3.464,1.352-5.014,0.082-6.61C209.947,110.91,207.996,110.873,207.126,111.757z"/>
			<path d="M156.506,137.957c-2.559,1.567-4.324,3.596-5.288,6.135l0.444,0.172c-0.102,0.583-0.212,1.169-0.319,1.754
				c1.719-1.633,3.358-3.188,4.44-4.216c1.849,1.454,3.655,2.873,5.457,4.29c-0.1-0.603-0.2-1.206-0.295-1.809l0.452-0.17
				C160.625,142.274,159.142,140.444,156.506,137.957z"/>
			<path d="M139.044,139.725c-1.053-0.831-1.942-1.533-2.828-2.233c1.127,4.296,2.986,8.041,6.441,11.011
				c-0.617-4.235-1.196-8.216-1.809-12.416C140.198,137.397,139.652,138.499,139.044,139.725z"/>
			<path d="M169.97,148.246c3.172-3.045,5.544-6.39,6.732-10.925c-1.311,0.943-2.281,1.64-3.292,2.368
				c-0.313-0.694-0.599-1.326-0.875-1.945l-1.002-0.506C170.996,141.018,170.482,144.636,169.97,148.246z"/>
			<path d="M147.613,155.794c0.462-3.988,1.308-7.929,2.002-11.89c-2.908,4.595-3.92,9.639-4.403,14.993
				C147.131,158.412,147.43,157.374,147.613,155.794z"/>
			<path d="M167.586,158.889c-1.098-5.346-1.777-10.485-4.589-14.931c0.636,4.018,1.382,8.024,1.846,12.062
				C165.036,157.671,165.713,158.43,167.586,158.889z"/>
			<path d="M160.253,129.212c3.388,1.711,6.775,3.422,10.191,5.146C168.895,130.188,165.521,128.288,160.253,129.212z"/>
			<path d="M147.102,129.021c-0.501,0.025-1.122,0.271-1.454,0.63c-1.308,1.416-2.522,2.919-3.772,4.39
				c0.133,0.099,0.27,0.201,0.404,0.301c3.282-1.699,6.567-3.399,9.85-5.098C150.272,128.993,148.683,128.942,147.102,129.021z"/>
			<path d="M145.947,164.967c-0.195-0.017-0.392-0.033-0.587-0.052c-2.07,3.732-3.041,7.575-0.991,11.714
				C144.895,172.743,145.423,168.856,145.947,164.967z"/>
			<path d="M168.807,176.689c0.819-3.986,1.217-7.902-2.123-11.227c0.519,3.772,1.036,7.541,1.553,11.313
				C168.429,176.746,168.618,176.718,168.807,176.689z"/>
			<path d="M181.351,184.523c-1.84,0.729-3.763,1.303-5.49,2.238c-1.276,0.69-2.298,1.854-3.432,2.806
				c1.898-0.327,3.451-1.439,5.025-1.477C180.167,188.032,180.165,185.672,181.351,184.523z"/>
			<path d="M140.288,190.161c-2.168-3.841-6.198-3.934-9.157-6.026c1.269,4.81,5.839,3.979,9.086,6.002L140.288,190.161z"/>
			<path d="M140.306,190.188c-0.004-0.006-0.011-0.011-0.012-0.019l-0.002,0.012C140.295,190.183,140.299,190.186,140.306,190.188z"
				/>
			<path d="M138.127,192.215c0.017-0.192,0.03-0.386,0.044-0.577c-1.646-0.563-3.297-1.126-5.063-1.729
				c-1.234,2.12-1.915-0.827-3.243-0.605c1.075,1.327,2.046,2.527,2.706,3.341C134.717,192.478,136.421,192.347,138.127,192.215z"/>
			<path d="M182.607,189.602c0.046-0.088,0.219-0.115,0.342-0.163c-2.975,0.716-5.949,1.43-8.923,2.143
				C177.398,192.726,180.663,193.467,182.607,189.602z"/>
			<path d="M182.978,189.429c-0.009,0.002-0.019,0.004-0.029,0.01c0.01-0.002,0.018-0.005,0.025-0.008L182.978,189.429z"/>
			<path d="M173.902,126.897c1.222,0.928,2.443,1.857,3.895,2.961c-1.223-3.641-3.615-5.605-7.124-6.391
				c0.968,1.047,1.938,2.095,2.908,3.143C173.687,126.706,173.795,126.802,173.902,126.897z"/>
			<path d="M141.174,123.071c-2.659,1.516-5.372,2.975-6.162,6.395c1.394-1.011,2.745-1.992,4.099-2.973
				c0.11-0.101,0.218-0.202,0.324-0.303c0.761-0.876,1.52-1.752,2.279-2.627C141.534,123.399,141.354,123.235,141.174,123.071z"/>
		</g>
	</g>
</g>
<path fill="#E9C247" d="M154.182,292.049l-0.645-0.001c-37.332-0.17-72.402-14.906-98.752-41.495
	c-26.35-26.588-40.767-61.791-40.599-99.123c0.35-76.837,63.141-139.351,139.975-139.351l0.646,0.001
	c77.187,0.351,139.698,63.433,139.349,140.621C293.807,229.537,231.015,292.049,154.182,292.049z M154.161,14.646
	c-75.425,0-137.065,61.366-137.407,136.798c-0.166,36.645,13.987,71.201,39.854,97.303c25.867,26.102,60.294,40.567,96.94,40.735
	l0.634,0.001c75.424,0,137.064-61.365,137.407-136.794c0.343-75.771-61.022-137.697-136.793-138.042L154.161,14.646z"/>
<path fill="#E11E30" d="M240.295,229.356l-1.556-1.465c15.001-15.927,25.07-35.628,29.122-56.971l2.099,0.398
	C265.833,193.063,255.576,213.131,240.295,229.356z"/>
<path fill="#E11E30" d="M73.692,232.419c-16.568-16.356-27.76-36.968-32.368-59.612l2.092-0.426
	c4.524,22.226,15.512,42.461,31.775,58.519L73.692,232.419z"/>
<path fill="#E11E30" d="M154.172,287.376c-74.613,0-135.314-60.7-135.314-135.311c0-74.613,60.701-135.314,135.314-135.314
	c74.611,0,135.312,60.701,135.312,135.314C289.484,226.676,228.783,287.376,154.172,287.376z M154.172,22.806
	c-71.274,0-129.259,57.985-129.259,129.259c0,71.272,57.985,129.256,129.259,129.256c71.273,0,129.257-57.984,129.257-129.256
	C283.429,80.792,225.445,22.806,154.172,22.806z"/>
</svg>
